<svg width="53" height="28" viewBox="0 0 53 28" fill="none" xmlns="http://www.w3.org/2000/svg">
<!-- <path d="M1.84572 26.0708V26.2398H2.79719C2.79488 26.3994 2.75791 26.5568 2.68869 26.7016C2.61896 26.8431 2.50693 26.9609 2.3672 27.0397C2.21858 27.1199 2.05048 27.16 1.88047 27.1556C1.70073 27.1603 1.52345 27.1152 1.36919 27.0255C1.21494 26.9359 1.09011 26.8055 1.00955 26.6495C0.92417 26.48 0.879787 26.2937 0.879787 26.105C0.879787 25.9163 0.92417 25.7301 1.00955 25.5606C1.09268 25.403 1.21994 25.2714 1.3766 25.1806C1.53327 25.0899 1.71303 25.0438 1.89541 25.0476C2.05377 25.0456 2.21025 25.0811 2.35128 25.151C2.48796 25.2204 2.6041 25.3225 2.68869 25.4476L2.81809 25.3182C2.72007 25.1751 2.58485 25.0598 2.42601 24.9839C2.26852 24.9116 2.09708 24.872 1.92287 24.868C1.74867 24.864 1.57559 24.8956 1.41476 24.9607C1.27004 25.0218 1.13964 25.1109 1.03154 25.2225C0.922279 25.3368 0.836446 25.4702 0.778699 25.6157C0.716609 25.7715 0.685495 25.9374 0.687087 26.1045C0.685288 26.2714 0.715758 26.4373 0.776755 26.5934C0.833489 26.7367 0.918311 26.8679 1.02656 26.9798C1.13427 27.0902 1.26389 27.1784 1.40771 27.2388C1.55872 27.3027 1.7218 27.3355 1.88654 27.3353C2.09066 27.3398 2.29207 27.2897 2.46877 27.1904C2.6386 27.0914 2.7741 26.9454 2.85794 26.7712C2.95501 26.5609 3.00203 26.332 2.99536 26.1017V26.0697L1.84572 26.0708Z" fill="#62615D"/>
<path d="M3.34326 27.3035V24.8372H3.52234V27.3035H3.34326Z" fill="#62615D"/>
<path d="M4.67963 27.3386C4.52872 27.3407 4.38023 27.3011 4.25158 27.2245C4.12458 27.1482 4.02009 27.0414 3.94807 26.9144C3.8726 26.7817 3.83411 26.6322 3.83653 26.4806C3.83416 26.33 3.87267 26.1815 3.94807 26.0498C4.02069 25.9251 4.12518 25.8205 4.25158 25.7464C4.38081 25.6725 4.52805 25.6335 4.67805 25.6335C4.82805 25.6335 4.97541 25.6725 5.10464 25.7464C5.22958 25.8207 5.33241 25.9253 5.40316 26.0498C5.47848 26.1815 5.51698 26.33 5.5147 26.4806C5.51711 26.6328 5.47863 26.783 5.40316 26.9164C5.33266 27.0424 5.22987 27.1485 5.10464 27.2245C4.97685 27.3006 4.82953 27.3402 4.67963 27.3386ZM4.67963 27.1695C4.79814 27.1698 4.91407 27.1362 5.01303 27.0729C5.11304 27.0127 5.19422 26.9272 5.24789 26.8256C5.3064 26.7169 5.33589 26.5956 5.33354 26.473C5.33608 26.3531 5.30653 26.2345 5.24789 26.129C5.19283 26.0298 5.11184 25.9465 5.01303 25.8874C4.91289 25.8274 4.7973 25.7963 4.67963 25.7976C4.56069 25.7962 4.44376 25.8273 4.34222 25.8874C4.2437 25.9472 4.16245 26.0303 4.10627 26.129C4.04647 26.2352 4.01627 26.3548 4.01866 26.4758C4.01636 26.5984 4.04653 26.7195 4.10627 26.8275C4.16172 26.9277 4.24305 27.0123 4.34222 27.0729C4.4425 27.1366 4.55976 27.1695 4.67963 27.1695Z" fill="#62615D"/>
<path d="M7.36029 26.0537C7.29427 25.9291 7.19538 25.8237 7.07367 25.7484C6.96289 25.6824 6.83708 25.6442 6.70734 25.6369C6.57761 25.6297 6.44804 25.6537 6.3302 25.7068C6.22946 25.7528 6.14183 25.8221 6.0753 25.9087C6.05156 25.9412 6.03131 25.9758 6.01467 26.0122V24.8394H5.83643V27.3057H6.01467V26.9608C6.03173 26.9944 6.05132 27.0266 6.07335 27.0574C6.14019 27.1443 6.22713 27.2148 6.32717 27.2632C6.43135 27.3123 6.54585 27.3374 6.66166 27.3366C6.80779 27.3391 6.95134 27.2998 7.07464 27.2237C7.19579 27.1485 7.29469 27.0439 7.36138 26.9202C7.43041 26.7851 7.46624 26.6364 7.46624 26.4855C7.46624 26.3347 7.43041 26.1859 7.36138 26.0507L7.36029 26.0537ZM7.20003 26.84C7.14703 26.9419 7.0653 27.0272 6.96432 27.0857C6.86333 27.1442 6.74726 27.1736 6.6297 27.1705C6.51572 27.172 6.40373 27.1414 6.30724 27.0825C6.21246 27.0233 6.13615 26.9402 6.08635 26.842C6.03203 26.7321 6.0047 26.6114 6.00665 26.4894C6.00381 26.3653 6.03183 26.2423 6.0883 26.1309C6.13731 26.032 6.21431 25.9486 6.31028 25.8905C6.40973 25.8318 6.52442 25.8019 6.64076 25.8044C6.75635 25.8021 6.87018 25.8318 6.96918 25.8898C7.06817 25.9477 7.14817 26.0317 7.20003 26.132C7.25525 26.2425 7.28399 26.3637 7.28399 26.4865C7.28399 26.6093 7.25525 26.7295 7.20003 26.84Z" fill="#62615D"/>
<path d="M9.13586 25.6692V26.0054C9.12026 25.972 9.10223 25.9398 9.08203 25.9088C9.0188 25.8229 8.93472 25.7535 8.83721 25.7068C8.73214 25.6573 8.61657 25.6325 8.4998 25.6344C8.35254 25.6325 8.20796 25.6725 8.08378 25.7494C7.95833 25.8247 7.85533 25.9306 7.78513 26.0566C7.71357 26.1909 7.67627 26.34 7.67627 26.4913C7.67627 26.6425 7.71357 26.7917 7.78513 26.9261C7.85555 27.0508 7.95857 27.1554 8.08378 27.2294C8.21049 27.3053 8.35686 27.3445 8.50576 27.3424C8.62029 27.3442 8.73364 27.3194 8.83624 27.2699C8.93279 27.2222 9.01587 27.1522 9.07815 27.0662C9.10004 27.0328 9.11932 26.9979 9.13586 26.9618V27.3066H9.31398V25.6721L9.13586 25.6692ZM8.97657 26.9811C8.92232 27.0442 8.85398 27.0943 8.7767 27.1278C8.69942 27.1613 8.61524 27.1772 8.53066 27.1743C8.41006 27.1761 8.2913 27.1457 8.1873 27.0864C8.08696 27.0278 8.00501 26.9435 7.95038 26.8429C7.89244 26.7333 7.86342 26.6116 7.86581 26.4884C7.86366 26.3665 7.89269 26.246 7.95038 26.1377C8.00475 26.0356 8.08768 25.9505 8.18961 25.892C8.29154 25.8336 8.40832 25.8042 8.52665 25.8073C8.6414 25.805 8.75443 25.8348 8.85215 25.8932C8.94599 25.9513 9.02094 26.0341 9.06818 26.1319C9.12025 26.2452 9.1457 26.3683 9.14278 26.4923C9.15049 26.6699 9.09104 26.8441 8.9756 26.9821L8.97657 26.9811Z" fill="#62615D"/>
<path d="M9.73193 27.3035V24.8372H9.91101V27.3035H9.73193Z" fill="#62615D"/>
<path d="M11.729 27.3385C11.5614 27.3425 11.3954 27.3056 11.2463 27.2312C11.1095 27.1579 10.9906 27.0567 10.8979 26.9346L11.0263 26.809C11.1056 26.9226 11.2122 27.0157 11.3368 27.0804C11.4603 27.1402 11.597 27.1701 11.735 27.1675C11.8773 27.1733 12.0176 27.1325 12.1331 27.0516C12.1834 27.0136 12.2236 26.9644 12.2503 26.9083C12.2769 26.8521 12.2894 26.7905 12.2865 26.7288C12.291 26.6389 12.2678 26.5498 12.2198 26.4729C12.1747 26.4063 12.1144 26.3507 12.0436 26.3105C11.9659 26.2671 11.885 26.2294 11.8017 26.1975C11.7151 26.1656 11.6265 26.1318 11.5389 26.1009C11.4543 26.0685 11.3741 26.0263 11.3 25.9753C11.2273 25.9243 11.1671 25.8583 11.1238 25.782C11.0747 25.6886 11.0511 25.5845 11.0552 25.4797C11.0516 25.3699 11.0812 25.2614 11.1405 25.1679C11.1997 25.0743 11.286 24.9997 11.3886 24.9532C11.5009 24.902 11.6239 24.8765 11.748 24.8788C11.891 24.8769 12.0324 24.9077 12.1609 24.9687C12.2811 25.0285 12.3854 25.1144 12.4656 25.2199L12.3362 25.3464C12.2669 25.2564 12.1791 25.1814 12.0783 25.1261C11.975 25.0746 11.8601 25.049 11.744 25.0517C11.6134 25.0455 11.4848 25.0849 11.3816 25.1628C11.3357 25.2001 11.2992 25.2473 11.2752 25.3006C11.2512 25.354 11.2402 25.4119 11.2433 25.47C11.2394 25.5543 11.2627 25.6378 11.31 25.7087C11.357 25.7716 11.4174 25.8239 11.4871 25.8622C11.5644 25.9047 11.6453 25.9407 11.729 25.9695C11.8156 25.9995 11.9032 26.0323 11.9898 26.0661C12.0743 26.1014 12.1544 26.1457 12.2286 26.1984C12.3025 26.2516 12.3632 26.3203 12.4059 26.3994C12.4534 26.4968 12.4762 26.6038 12.4725 26.7114C12.4782 26.7992 12.4632 26.8872 12.4287 26.9685C12.3942 27.0499 12.3412 27.1225 12.2735 27.1809C12.1171 27.2946 11.924 27.3505 11.729 27.3385Z" fill="#62615D"/>
<path d="M14.1517 25.6691V26.0053C14.1359 25.972 14.118 25.9398 14.098 25.9087C14.0345 25.8231 13.9505 25.7537 13.8532 25.7067C13.7338 25.6527 13.6025 25.6284 13.471 25.6358C13.3395 25.6432 13.2118 25.6823 13.0997 25.7493C12.9741 25.8246 12.8712 25.9305 12.8011 26.0565C12.7294 26.1908 12.6919 26.3399 12.6919 26.4912C12.6919 26.6425 12.7294 26.7916 12.8011 26.926C12.8712 27.051 12.9742 27.1556 13.0997 27.2293C13.2264 27.3052 13.3728 27.3444 13.5217 27.3423C13.6363 27.3441 13.7495 27.3193 13.8521 27.2699C13.9485 27.2218 14.0315 27.152 14.094 27.0661C14.1159 27.0327 14.1352 26.9978 14.1517 26.9617V27.3065H14.33V25.672L14.1517 25.6691ZM13.9926 26.9811C13.9381 27.0441 13.8694 27.0942 13.792 27.1276C13.7145 27.1611 13.6303 27.1771 13.5456 27.1742C13.425 27.1759 13.3063 27.1455 13.2022 27.0864C13.1024 27.0273 13.021 26.9431 12.9664 26.8428C12.9081 26.7333 12.8786 26.6116 12.8807 26.4883C12.8789 26.3664 12.9083 26.2458 12.9664 26.1376C13.0207 26.0357 13.1034 25.9507 13.2051 25.8923C13.3068 25.8339 13.4235 25.8043 13.5417 25.8072C13.6568 25.8047 13.7701 25.8345 13.8681 25.8931C13.9616 25.951 14.0359 26.034 14.0821 26.1318C14.1351 26.2448 14.1609 26.3681 14.1577 26.4922C14.1658 26.6696 14.1072 26.8427 13.9926 26.9811Z" fill="#62615D"/>
<path d="M15.2518 25.0758C15.2863 25.0394 15.3286 25.0108 15.3758 24.9921C15.4229 24.9734 15.4737 24.9651 15.5246 24.9677C15.5763 24.9673 15.6275 24.9775 15.6749 24.9976C15.7246 25.0205 15.7688 25.0534 15.8043 25.0942L15.9188 24.9744C15.8718 24.9221 15.8137 24.8803 15.7485 24.8517C15.6788 24.8224 15.6035 24.8079 15.5275 24.8092C15.4274 24.8077 15.3288 24.8325 15.2419 24.8807C15.1582 24.9258 15.0893 24.9927 15.0429 25.0739C14.995 25.1633 14.9709 25.263 14.9731 25.3638V25.6729H14.5502V25.8314H14.9731V27.3066H15.1493V25.8314H15.7227V25.6729H15.1493V25.3753C15.1437 25.2666 15.1803 25.1597 15.2518 25.0758Z" fill="#62615D"/>
<path d="M17.2553 26.011C17.1946 25.8972 17.1031 25.8017 16.9906 25.7347C16.8698 25.667 16.7318 25.6335 16.5924 25.6381C16.4427 25.6368 16.2955 25.6759 16.1674 25.7511C16.0417 25.8244 15.9387 25.9293 15.8689 26.0545C15.7953 26.1878 15.758 26.3371 15.7604 26.4883C15.7576 26.6405 15.796 26.7906 15.8718 26.9239C15.9449 27.0522 16.0525 27.1589 16.1831 27.2325C16.3137 27.3062 16.4623 27.3441 16.6133 27.3422C16.7393 27.3431 16.864 27.3175 16.9787 27.267C17.088 27.2192 17.1844 27.1474 17.2603 27.0573L17.1409 26.9414C17.0827 27.0176 17.0048 27.0776 16.915 27.1152C16.8111 27.1579 16.6985 27.1776 16.5857 27.1727C16.473 27.1679 16.3627 27.1387 16.263 27.0872C16.1613 27.0305 16.0784 26.9467 16.0242 26.8457C15.9783 26.7552 15.9519 26.6566 15.9465 26.5558H17.335C17.335 26.524 17.3429 26.496 17.3449 26.4738C17.3469 26.4515 17.3449 26.4332 17.3449 26.4187C17.3509 26.2776 17.3201 26.1374 17.2553 26.011ZM16.0242 26.123C16.0759 26.0247 16.1553 25.9427 16.2531 25.8864C16.3556 25.8271 16.4731 25.797 16.5924 25.7994C16.7043 25.797 16.8148 25.8251 16.911 25.8806C16.9985 25.936 17.0676 26.0148 17.11 26.1076C17.1503 26.1991 17.1703 26.2979 17.1687 26.3975H15.9456C15.9523 26.3018 15.9791 26.2084 16.0242 26.123Z" fill="#62615D"/>
<path d="M18.4405 25.67H18.0205V24.9783H17.8424V25.67H17.4224V25.8284H17.8424V27.3036H18.0205V25.8275H18.4405V25.67Z" fill="#62615D"/>
<path d="M19.9134 25.6699L19.3053 27.0176L18.7239 25.6699H18.5249L19.2068 27.2157L18.8255 28.0001H19.0176L19.3391 27.3114L20.1055 25.6748L19.9134 25.6699Z" fill="#62615D"/>
<path d="M21.0991 27.3046V24.9087H21.2852V27.3046H21.0991Z" fill="#62615D"/>
<path d="M23.0859 25.9686C23.0348 25.8687 22.9568 25.7843 22.86 25.7242C22.7587 25.6636 22.6416 25.6324 22.5226 25.6344C22.4028 25.6324 22.2846 25.6615 22.1802 25.7185C22.0834 25.7733 22.0025 25.8511 21.9452 25.9445V25.6692H21.7671V27.3038H21.9452V26.3377C21.9428 26.2407 21.9664 26.1449 22.0139 26.0595C22.0576 25.9814 22.1228 25.9165 22.2021 25.872C22.2868 25.8249 22.3831 25.8013 22.4807 25.8035C22.5497 25.8008 22.6186 25.8125 22.6825 25.838C22.7464 25.8635 22.8039 25.9022 22.851 25.9512C22.9476 26.0575 22.9979 26.1961 22.9913 26.3377V27.3038H23.1665V26.3126C23.1678 26.1934 23.1401 26.0755 23.0859 25.9686Z" fill="#62615D"/>
<path d="M24.8739 25.9686C24.823 25.8663 24.7429 25.7805 24.643 25.7212C24.5431 25.662 24.4277 25.6318 24.3107 25.6344C24.1905 25.6323 24.0719 25.6614 23.9672 25.7185C23.8704 25.7734 23.7896 25.8512 23.7323 25.9446V25.6692H23.5542V27.3039H23.7323V26.3378C23.7303 26.2409 23.754 26.1451 23.801 26.0596C23.8447 25.9815 23.9099 25.9165 23.9892 25.8721C24.074 25.8252 24.1702 25.8016 24.2678 25.8035C24.3368 25.8007 24.4058 25.8125 24.4697 25.838C24.5336 25.8635 24.5911 25.9021 24.6381 25.9513C24.735 26.0575 24.7856 26.1961 24.7794 26.3378V27.3039H24.9536V26.3126C24.9558 26.1935 24.9285 26.0755 24.8739 25.9686Z" fill="#62615D"/>
<path d="M26.0818 27.3385C25.9306 27.3405 25.7819 27.3009 25.6528 27.2244C25.5273 27.1479 25.4245 27.041 25.3543 26.9143C25.2788 26.7829 25.24 26.6348 25.2418 26.4844C25.2396 26.3336 25.2788 26.1848 25.3553 26.0535C25.4261 25.929 25.5289 25.8245 25.6538 25.7502C25.7831 25.6764 25.9304 25.6375 26.0804 25.6375C26.2304 25.6375 26.3776 25.6764 26.5069 25.7502C26.6317 25.8245 26.7347 25.929 26.8055 26.0535C26.8817 26.1849 26.9204 26.3337 26.9179 26.4844C26.9204 26.6367 26.8817 26.787 26.8055 26.9202C26.7349 27.0461 26.632 27.1522 26.5069 27.2283C26.3786 27.303 26.2314 27.3412 26.0818 27.3385ZM26.0818 27.1694C26.2006 27.1694 26.3169 27.1359 26.4163 27.0728C26.5161 27.0126 26.597 26.9271 26.6502 26.8255C26.7087 26.7168 26.7381 26.5955 26.7358 26.4729C26.7383 26.353 26.7089 26.2344 26.6502 26.1289C26.5956 26.0298 26.5149 25.9464 26.4163 25.8873C26.3158 25.8275 26.1998 25.7964 26.0818 25.7975C25.9626 25.7959 25.8453 25.8271 25.7435 25.8873C25.6453 25.9475 25.5642 26.0305 25.5075 26.1289C25.448 26.2352 25.4183 26.3547 25.421 26.4757C25.4183 26.5982 25.4481 26.7193 25.5075 26.8274C25.5633 26.9273 25.6446 27.0118 25.7435 27.0728C25.844 27.1366 25.9616 27.1696 26.0818 27.1694Z" fill="#62615D"/>
<path d="M28.4154 25.6699L27.7943 27.0331L27.1762 25.6699H26.9771L27.7366 27.3036H27.841L28.6035 25.6699H28.4154Z" fill="#62615D"/>
<path d="M30.125 25.6692V26.0054C30.1102 25.9717 30.0922 25.9394 30.0713 25.9088C30.0084 25.8227 29.9241 25.7532 29.8264 25.7068C29.7214 25.6571 29.6058 25.6323 29.489 25.6344C29.3417 25.6328 29.1972 25.6727 29.0729 25.7494C28.9495 25.8256 28.8483 25.9314 28.7793 26.0566C28.7077 26.191 28.6704 26.34 28.6704 26.4913C28.6704 26.6426 28.7077 26.7917 28.7793 26.9261C28.8494 27.051 28.9525 27.1557 29.0779 27.2294C29.2042 27.3054 29.3503 27.3445 29.4989 27.3424C29.6135 27.3445 29.7269 27.3197 29.8294 27.27C29.926 27.2222 30.009 27.1523 30.0713 27.0662C30.094 27.0333 30.1134 26.9984 30.129 26.9618V27.3066H30.3081V25.6721L30.125 25.6692ZM29.9657 26.9812C29.9114 27.0442 29.8431 27.0943 29.7659 27.1277C29.6886 27.1612 29.6044 27.1772 29.5198 27.1743C29.3996 27.176 29.2811 27.1456 29.1774 27.0865C29.0773 27.0278 28.9958 26.9435 28.9416 26.8429C28.8828 26.7336 28.8533 26.6117 28.8559 26.4884C28.8535 26.3664 28.883 26.2457 28.9416 26.1377C28.9959 26.0358 29.0786 25.9509 29.1803 25.8924C29.2821 25.834 29.3987 25.8044 29.5169 25.8073C29.6313 25.8052 29.7439 25.835 29.8413 25.8933C29.9357 25.9507 30.0108 26.0337 30.0573 26.1319C30.1097 26.2451 30.1356 26.3683 30.133 26.4923C30.1403 26.6704 30.0797 26.8447 29.9628 26.9821L29.9657 26.9812Z" fill="#62615D"/>
<path d="M31.5539 25.67H31.1339V24.9783H30.9558V25.67H30.5356V25.8284H30.9558V27.3036H31.1339V25.8275H31.5539V25.67Z" fill="#62615D"/>
<path d="M31.988 25.6699H31.812V27.3036H31.988V25.6699Z" fill="#62615D"/>
<path d="M32.0011 25.0428C31.9883 25.0298 31.9729 25.0195 31.9558 25.0125C31.9387 25.0055 31.9202 25.002 31.9016 25.0022C31.883 25.0018 31.8646 25.0053 31.8474 25.0123C31.8303 25.0192 31.8148 25.0296 31.8021 25.0428C31.7763 25.0687 31.7619 25.1035 31.7623 25.1395C31.7612 25.178 31.7755 25.2152 31.8021 25.2437C31.8143 25.2577 31.8296 25.2689 31.8468 25.2764C31.864 25.2839 31.8827 25.2876 31.9016 25.2873C31.9205 25.2874 31.9391 25.2836 31.9563 25.2761C31.9735 25.2686 31.9888 25.2575 32.0011 25.2437C32.029 25.2158 32.0445 25.1784 32.044 25.1395C32.0439 25.1214 32.0399 25.1035 32.0326 25.0869C32.0252 25.0703 32.0145 25.0553 32.0011 25.0428Z" fill="#62615D"/>
<path d="M33.1522 27.3385C33.001 27.3402 32.8524 27.3006 32.7232 27.2245C32.598 27.1475 32.4952 27.0407 32.4246 26.9143C32.3492 26.7816 32.3107 26.6321 32.3131 26.4806C32.3108 26.3299 32.3493 26.1815 32.4246 26.0498C32.4958 25.9255 32.5985 25.821 32.7232 25.7463C32.8527 25.6709 33.0012 25.6318 33.1522 25.6333C33.3019 25.6321 33.449 25.6712 33.5772 25.7463C33.7021 25.8206 33.805 25.9252 33.8758 26.0498C33.9512 26.1814 33.9896 26.3299 33.9873 26.4806C33.9898 26.6327 33.9514 26.783 33.8758 26.9163C33.8053 27.0423 33.7024 27.1484 33.5772 27.2245C33.4494 27.3005 33.3021 27.3401 33.1522 27.3385ZM33.1522 27.1694C33.271 27.1698 33.3873 27.1362 33.4866 27.0728C33.5863 27.0123 33.6675 26.9269 33.7215 26.8255C33.78 26.7168 33.8094 26.5955 33.8071 26.4729C33.8096 26.353 33.7802 26.2344 33.7215 26.1289C33.6661 26.03 33.5851 25.9467 33.4866 25.8874C33.3861 25.8272 33.2702 25.7961 33.1522 25.7975C33.0332 25.7961 32.9163 25.8272 32.8148 25.8874C32.716 25.9467 32.6346 26.03 32.5788 26.1289C32.5185 26.235 32.488 26.3546 32.4902 26.4757C32.4881 26.5984 32.5186 26.7195 32.5788 26.8274C32.6339 26.9279 32.7153 27.0125 32.8148 27.0728C32.915 27.1365 33.0323 27.1695 33.1522 27.1694Z" fill="#62615D"/>
<path d="M35.626 25.9686C35.5751 25.8663 35.4948 25.7805 35.3949 25.7212C35.295 25.662 35.1797 25.6318 35.0626 25.6344C34.9425 25.6324 34.824 25.6615 34.7193 25.7185C34.6226 25.7731 34.542 25.851 34.4854 25.9446V25.6692H34.3062V27.3039H34.4854V26.3378C34.4831 26.2409 34.5064 26.1452 34.553 26.0596C34.5968 25.9815 34.6618 25.9165 34.7411 25.8721C34.826 25.8253 34.9223 25.8017 35.0198 25.8035C35.089 25.8008 35.158 25.8126 35.222 25.8381C35.2861 25.8636 35.3437 25.9022 35.391 25.9513C35.4873 26.0578 35.5375 26.1962 35.5314 26.3378V27.3039H35.7066V26.3126C35.7083 26.1934 35.6807 26.0754 35.626 25.9686Z" fill="#62615D"/>
<path d="M37.0177 27.1345V24.9077H36.8325V27.3036H38.2987V27.1345H37.0177Z" fill="#62615D"/>
<path d="M39.8635 25.6692V26.0054C39.8478 25.9721 39.8297 25.9399 39.8097 25.9088C39.7461 25.823 39.6617 25.7535 39.5639 25.7068C39.459 25.657 39.3433 25.6322 39.2265 25.6344C39.0793 25.6328 38.9348 25.6727 38.8105 25.7494C38.687 25.8256 38.5858 25.9314 38.5168 26.0566C38.4451 26.1909 38.4077 26.34 38.4077 26.4913C38.4077 26.6426 38.4451 26.7918 38.5168 26.9261C38.5869 27.0511 38.69 27.1558 38.8155 27.2294C38.9422 27.3054 39.0885 27.3446 39.2374 27.3424C39.3517 27.3444 39.4648 27.3196 39.567 27.27C39.6638 27.2226 39.7468 27.1526 39.8087 27.0662C39.8314 27.0332 39.8512 26.9982 39.8675 26.9618V27.3067H40.0457V25.6721L39.8635 25.6692ZM39.7042 26.9812C39.6498 27.0442 39.5812 27.0943 39.5038 27.1278C39.4263 27.1612 39.3421 27.1772 39.2574 27.1743C39.1368 27.176 39.018 27.1457 38.914 27.0865C38.8139 27.0278 38.7323 26.9435 38.6781 26.843C38.6197 26.7335 38.5903 26.6117 38.5925 26.4885C38.5906 26.3665 38.6199 26.2459 38.6781 26.1377C38.7326 26.0377 38.8136 25.9537 38.9129 25.8943C39.0158 25.835 39.1337 25.8045 39.2534 25.8063C39.3678 25.8042 39.4805 25.8341 39.5779 25.8923C39.6722 25.9498 39.7472 26.0328 39.7938 26.131C39.8467 26.2441 39.8726 26.3672 39.8695 26.4913C39.8779 26.669 39.8191 26.8426 39.7042 26.9812Z" fill="#62615D"/>
<path d="M41.9852 26.0537C41.9195 25.9288 41.8206 25.8233 41.6985 25.7484C41.5878 25.6824 41.462 25.6442 41.3322 25.6369C41.2025 25.6297 41.0729 25.6537 40.9551 25.7068C40.8545 25.7531 40.7671 25.8224 40.7003 25.9087C40.6766 25.9412 40.6562 25.9758 40.6395 26.0122V24.8394H40.4614V27.3057H40.6395V26.9608C40.6566 26.9946 40.6765 27.0269 40.6992 27.0574C40.7653 27.1446 40.852 27.2152 40.952 27.2632C41.0562 27.3123 41.1707 27.3374 41.2865 27.3366C41.4327 27.3391 41.5762 27.2998 41.6995 27.2237C41.821 27.1489 41.92 27.0441 41.9863 26.9202C42.0563 26.7854 42.0927 26.6365 42.0927 26.4855C42.0927 26.3345 42.0563 26.1856 41.9863 26.0507L41.9852 26.0537ZM41.825 26.84C41.772 26.9419 41.6902 27.0272 41.5892 27.0857C41.4882 27.1442 41.3723 27.1736 41.2547 27.1705C41.1404 27.1721 41.0279 27.1415 40.9311 27.0825C40.8364 27.0233 40.7601 26.9402 40.7103 26.842C40.6566 26.7319 40.63 26.6112 40.6326 26.4894C40.6295 26.3654 40.6571 26.2424 40.7132 26.1309C40.7622 26.032 40.8392 25.9486 40.9352 25.8905C41.0347 25.832 41.1493 25.802 41.2656 25.8044C41.3819 25.8028 41.4962 25.8327 41.596 25.8905C41.6939 25.9484 41.7733 26.0316 41.825 26.1309C41.8802 26.2414 41.9089 26.3627 41.9089 26.4855C41.9089 26.6084 41.8802 26.7295 41.825 26.84Z" fill="#62615D"/>
<path d="M43.1482 27.3385C42.997 27.3405 42.8483 27.301 42.7192 27.2244C42.5937 27.1479 42.4908 27.041 42.4206 26.9143C42.3448 26.7817 42.3061 26.6322 42.3082 26.4805C42.3062 26.3298 42.3449 26.1813 42.4206 26.0497C42.4914 25.9252 42.5943 25.8206 42.7192 25.7463C42.8485 25.6725 42.9957 25.6335 43.1457 25.6335C43.2957 25.6335 43.4429 25.6725 43.5722 25.7463C43.6967 25.8211 43.7995 25.9256 43.8708 26.0497C43.9461 26.1814 43.9846 26.3299 43.9823 26.4805C43.9848 26.6327 43.9463 26.7829 43.8708 26.9163C43.7997 27.0419 43.6969 27.1479 43.5722 27.2244C43.4447 27.3003 43.2978 27.3399 43.1482 27.3385ZM43.1482 27.1693C43.267 27.1694 43.3832 27.1359 43.4826 27.0728C43.5823 27.0123 43.6634 26.9269 43.7175 26.8255C43.7754 26.7165 43.8049 26.5954 43.8031 26.4729C43.8051 26.353 43.7756 26.2346 43.7175 26.1289C43.662 26.03 43.5811 25.9467 43.4826 25.8873C43.381 25.8285 43.2649 25.7976 43.1467 25.7976C43.0284 25.7976 42.9124 25.8285 42.8108 25.8873C42.712 25.947 42.6304 26.0301 42.5739 26.1289C42.5148 26.2353 42.485 26.3548 42.4873 26.4757C42.4851 26.5981 42.5149 26.7191 42.5739 26.8273C42.6297 26.9277 42.7113 27.0122 42.8108 27.0728C42.911 27.1368 43.0283 27.1698 43.1482 27.1693Z" fill="#62615D"/>
<path d="M45.186 25.6768C45.1158 25.6482 45.0404 25.6337 44.9642 25.6344C44.8863 25.6316 44.8088 25.6458 44.7373 25.6759C44.6659 25.706 44.6022 25.7513 44.5511 25.8083C44.5243 25.8379 44.5008 25.8703 44.4813 25.9049V25.6673H44.3032V27.3018H44.4813V26.3251C44.4718 26.1854 44.517 26.0475 44.6078 25.9387C44.6484 25.8941 44.6986 25.8588 44.7548 25.8352C44.8111 25.8116 44.8721 25.8004 44.9333 25.8024C44.9953 25.8013 45.0569 25.8122 45.1145 25.8344C45.1701 25.858 45.2192 25.8941 45.2577 25.9397L45.3772 25.8141C45.3248 25.7551 45.2595 25.7082 45.186 25.6768Z" fill="#62615D"/>
<path d="M46.8539 25.6692V26.0054C46.8381 25.9721 46.8202 25.9399 46.8002 25.9088C46.7369 25.8229 46.6527 25.7535 46.5552 25.7068C46.4502 25.6573 46.3346 25.6325 46.2178 25.6344C46.0705 25.6324 45.9259 25.6724 45.8018 25.7494C45.6763 25.8246 45.5733 25.9306 45.5032 26.0566C45.4314 26.1909 45.394 26.3399 45.394 26.4913C45.394 26.6426 45.4314 26.7917 45.5032 26.9261C45.5736 27.0508 45.6766 27.1554 45.8018 27.2294C45.9285 27.3054 46.0749 27.3445 46.2238 27.3424C46.3383 27.3442 46.4517 27.3194 46.5543 27.2699C46.6508 27.2222 46.7339 27.1523 46.7962 27.0662C46.8181 27.0329 46.8374 26.998 46.8539 26.9618V27.3066H47.032V25.6721L46.8539 25.6692ZM46.6946 26.9811C46.6403 27.0442 46.572 27.0944 46.4947 27.1278C46.4174 27.1613 46.3333 27.1772 46.2487 27.1743C46.1281 27.1762 46.0093 27.1458 45.9053 27.0864C45.8049 27.0278 45.723 26.9435 45.6684 26.8429C45.6105 26.7333 45.5815 26.6116 45.5838 26.4884C45.5818 26.3665 45.6108 26.246 45.6684 26.1377C45.7227 26.0358 45.8055 25.9508 45.9073 25.8924C46.009 25.834 46.1255 25.8044 46.2437 25.8073C46.3588 25.8048 46.4722 25.8346 46.5702 25.8932C46.6637 25.9511 46.7381 26.0341 46.7843 26.1319C46.8373 26.2449 46.8631 26.3682 46.8598 26.4923C46.868 26.6697 46.8092 26.8428 46.6946 26.9811Z" fill="#62615D"/>
<path d="M48.2843 25.67H47.8643V24.9783H47.6861V25.67H47.2661V25.8284H47.6861V27.3036H47.8643V25.8275H48.2843V25.67Z" fill="#62615D"/>
<path d="M49.2146 27.3385C49.0634 27.3405 48.9147 27.3009 48.7856 27.2244C48.6601 27.1479 48.5573 27.041 48.4871 26.9143C48.4115 26.7816 48.3727 26.6321 48.3746 26.4805C48.3727 26.3298 48.4115 26.1813 48.4871 26.0497C48.5579 25.9252 48.6607 25.8206 48.7856 25.7463C48.9149 25.6725 49.0621 25.6335 49.2121 25.6335C49.3621 25.6335 49.5094 25.6725 49.6387 25.7463C49.7633 25.821 49.866 25.9255 49.9372 26.0497C50.0125 26.1814 50.051 26.3299 50.0487 26.4805C50.0511 26.6327 50.0127 26.7829 49.9372 26.9163C49.8663 27.042 49.7636 27.148 49.6387 27.2244C49.5112 27.3003 49.3642 27.3399 49.2146 27.3385ZM49.2146 27.1693C49.3331 27.1694 49.449 27.1358 49.548 27.0728C49.6478 27.0123 49.7289 26.9269 49.7829 26.8255C49.8405 26.7165 49.8696 26.5954 49.8676 26.4729C49.8698 26.3531 49.8406 26.2347 49.7829 26.1289C49.7275 26.0299 49.6466 25.9467 49.548 25.8873C49.4465 25.8285 49.3304 25.7976 49.2121 25.7976C49.0938 25.7976 48.9778 25.8285 48.8763 25.8873C48.7774 25.947 48.6958 26.0301 48.6393 26.1289C48.5803 26.2353 48.5504 26.3548 48.5527 26.4757C48.5505 26.5981 48.5804 26.7191 48.6393 26.8273C48.6951 26.9277 48.7768 27.0122 48.8763 27.0728C48.9767 27.137 49.0944 27.17 49.2146 27.1693Z" fill="#62615D"/>
<path d="M51.2525 25.6768C51.1826 25.6481 51.1074 25.6337 51.0316 25.6343C50.9537 25.6317 50.8762 25.6459 50.8047 25.676C50.7333 25.7061 50.6697 25.7513 50.6185 25.8083C50.5917 25.8379 50.5683 25.8703 50.5488 25.9049V25.6673H50.3706V27.3018H50.5488V26.3251C50.5394 26.1856 50.5841 26.0478 50.6742 25.9387C50.715 25.8941 50.7653 25.8587 50.8217 25.8352C50.8782 25.8116 50.9393 25.8004 51.0007 25.8024C51.0627 25.8014 51.1242 25.8123 51.1819 25.8344C51.2373 25.8584 51.2862 25.8944 51.3251 25.9397L51.4446 25.8141C51.392 25.7548 51.3264 25.7078 51.2525 25.6768Z" fill="#62615D"/>
<path d="M52.804 25.6699L52.1959 27.0176L51.6145 25.6699H51.4155L52.0974 27.2157L51.7161 28.0001H51.9082L52.2297 27.3114L52.9961 25.6748L52.804 25.6699Z" fill="#62615D"/> -->
<path d="M40.3951 22.4366H50.868L48.8963 19.2485H43.6758V10.8146L40.3911 5.5166V22.4327L40.3951 22.4366Z" fill="url(#paint0_linear_134_2754)"/>
<path d="M31.2433 8.06889V6.18213L30.0747 8.06889H31.2433Z" fill="url(#paint1_linear_134_2754)"/>
<path d="M32.2731 17.2465C32.2711 15.9809 31.7924 14.7597 30.9274 13.8127C30.0623 12.8658 28.8704 12.2584 27.5761 12.105L25.6282 15.2506H26.9331C27.4786 15.2506 28.0018 15.4609 28.3875 15.8353C28.7732 16.2097 28.9899 16.7175 28.9899 17.247C28.9899 17.7764 28.7732 18.2843 28.3875 18.6587C28.0018 19.0331 27.4786 19.2434 26.9331 19.2434H23.1568L21.1841 22.4315H26.9331C28.3492 22.4297 29.7066 21.8828 30.7077 20.9108C31.7088 19.9388 32.2718 18.6209 32.2731 17.2465Z" fill="url(#paint2_linear_134_2754)"/>
<path d="M37.1448 0.416558C36.8614 0.16822 36.4985 0.0219042 36.1172 0.00227032C35.7358 -0.0173636 35.3592 0.090816 35.0503 0.308652C34.7413 0.526489 34.5189 0.840735 34.4203 1.19879C34.3217 1.55684 34.3528 1.93696 34.5085 2.27537C34.6642 2.61378 34.9351 2.88991 35.2756 3.0576C35.6162 3.22529 36.0057 3.27431 36.379 3.1964C36.7523 3.1185 37.0868 2.91846 37.3262 2.62975C37.5657 2.34103 37.6956 1.98122 37.6942 1.6106C37.694 1.3853 37.6449 1.16251 37.5503 0.956795C37.4556 0.751079 37.3175 0.567073 37.1448 0.416558Z" fill="url(#paint3_linear_134_2754)"/>
<path d="M5.74772 9.72283C6.27189 9.21876 6.8887 8.8144 7.56622 8.53068C8.27461 8.23705 9.03739 8.08729 9.80767 8.09045C10.5779 8.0936 11.3394 8.24965 12.0452 8.54908C12.7527 8.84972 13.3945 9.27858 13.9364 9.8127L15.5945 6.96563C13.9637 5.6161 11.8899 4.87646 9.74692 4.87992C8.93662 4.87754 8.12989 4.98314 7.34922 5.19385C5.84468 5.59922 4.47337 6.37461 3.36788 7.4449C2.81712 7.9745 2.34062 8.57213 1.95057 9.22246C1.55802 9.87979 1.25231 10.5826 1.04078 11.3141C0.824028 12.0689 0.715536 12.849 0.718314 13.6326C0.715724 14.4212 0.8242 15.2065 1.04078 15.9666C1.25073 16.7024 1.5565 17.4091 1.95057 18.0698C2.3407 18.7201 2.81719 19.3177 3.36788 19.8474C3.91694 20.3775 4.53179 20.8394 5.19829 21.2222C5.87371 21.6086 6.59858 21.907 7.3542 22.11C8.13485 22.3208 8.9416 22.4265 9.7519 22.424C11.8949 22.4276 13.9688 21.6878 15.5995 20.3382V12.2917H9.09008V15.4701H12.3438V18.6137C11.9544 18.8033 11.545 18.951 11.1225 19.0543C10.6909 19.1606 10.2471 19.2138 9.80171 19.2127C9.03779 19.2172 8.28118 19.0676 7.58007 18.7731C6.20768 18.2003 5.11504 17.137 4.52846 15.8034C4.22384 15.1168 4.06954 14.3763 4.0755 13.6288C4.07012 12.8876 4.22445 12.1534 4.52846 11.4734C4.81698 10.8202 5.23072 10.2261 5.74772 9.72283Z" fill="#5A5A5A"/>
<path d="M37.666 4.88086H34.3813V22.4307H37.666V4.88086Z" fill="url(#paint4_linear_134_2754)"/>
<path d="M43.6787 4.88184H40.394V5.52043L43.6787 10.8252V4.88184Z" fill="#5A5A5A"/>
<path d="M52.9998 22.4364V19.2483H48.895L50.8669 22.4364H52.9998Z" fill="#5A5A5A"/>
<path d="M23.086 19.2434H18.7065V22.4314H21.1839L23.1577 19.2434H23.086Z" fill="#5A5A5A"/>
<path d="M27.5129 12.0956C27.3205 12.0749 27.1271 12.0643 26.9335 12.0637H26.1243H23.207C22.6615 12.0637 22.1384 11.8533 21.7526 11.4789C21.3669 11.1045 21.1501 10.5968 21.1501 10.0673C21.1501 9.5378 21.3669 9.02994 21.7526 8.65554C22.1384 8.28114 22.6615 8.07084 23.207 8.07084H30.0748L31.2423 6.18408V4.88379H23.206C21.8023 4.90239 20.4624 5.45659 19.4766 6.42667C18.4907 7.39674 17.938 8.70466 17.938 10.0673C17.938 11.4299 18.4907 12.7377 19.4766 13.7078C20.4624 14.6779 21.8023 15.2322 23.206 15.2508H24.0511H25.6277L27.5756 12.1052C27.5576 12.1033 27.5338 12.0975 27.5129 12.0956Z" fill="#5A5A5A"/>
<defs>
<linearGradient id="paint0_linear_134_2754" x1="36.4518" y1="8.9006" x2="52.4595" y2="16.7995" gradientUnits="userSpaceOnUse">
<stop stop-color="#ADCD00"/>
<stop offset="0.637" stop-color="#34B400"/>
<stop offset="1" stop-color="#00A69B"/>
</linearGradient>
<linearGradient id="paint1_linear_134_2754" x1="30.347" y1="7.27834" x2="28.8715" y2="7.37527" gradientUnits="userSpaceOnUse">
<stop stop-color="#ADCD00"/>
<stop offset="1" stop-color="#34B400"/>
</linearGradient>
<linearGradient id="paint2_linear_134_2754" x1="33.4042" y1="14.2219" x2="22.5996" y2="21.2017" gradientUnits="userSpaceOnUse">
<stop stop-color="#ADCD00"/>
<stop offset="0.302" stop-color="#34B400"/>
<stop offset="1" stop-color="#00A69B"/>
</linearGradient>
<linearGradient id="paint3_linear_134_2754" x1="34.3638" y1="1.61625" x2="37.6943" y2="1.61625" gradientUnits="userSpaceOnUse">
<stop stop-color="#ADCD00"/>
<stop offset="0.971" stop-color="#ADCD00"/>
</linearGradient>
<linearGradient id="paint4_linear_134_2754" x1="37.0452" y1="25.0105" x2="28.6028" y2="21.7254" gradientUnits="userSpaceOnUse">
<stop offset="0.212" stop-color="#34B400"/>
<stop offset="1" stop-color="#ADCD00"/>
</linearGradient>
</defs>
</svg>
