<svg width="191" height="91" viewBox="0 0 191 91" fill="none" xmlns="http://www.w3.org/2000/svg">
<g clip-path="url(#clip0_2453_987)">
<path d="M144.516 90.9517H182.643L175.466 78.9055H156.455V46.9853L144.516 26.9297V90.9517Z" fill="url(#paint0_linear_2453_987)"/>
<path d="M111.195 36.5741V29.4297L106.939 36.5741H111.195Z" fill="url(#paint1_linear_2453_987)"/>
<path d="M114.942 71.313C114.942 61.2959 107.459 53.0302 97.8368 51.8555L90.7449 63.7628H95.4976C99.6257 63.7628 102.981 67.1481 102.981 71.313C102.981 75.4779 99.6257 78.8633 95.4976 78.8633H81.7477L74.5605 90.9308H95.487C106.21 90.9308 114.932 82.1311 114.932 71.313H114.942Z" fill="url(#paint2_linear_2453_987)"/>
<path d="M132.684 7.61256C131.604 6.6194 130.175 6 128.598 6C125.243 6 122.512 8.74456 122.512 12.1406C122.512 13.7531 123.147 15.2055 124.152 16.3055C125.264 17.5122 126.83 18.2811 128.598 18.2811C131.953 18.2811 134.684 15.5366 134.684 12.1406C134.684 10.3464 133.901 8.74456 132.684 7.62324V7.61256Z" fill="url(#paint3_linear_2453_987)"/>
<path d="M18.3649 42.8334C20.2596 40.9325 22.4718 39.4374 24.9911 38.3267C27.5103 37.2161 30.2094 36.6608 33.078 36.6608C35.9465 36.6608 38.688 37.2375 41.2813 38.3908C43.8746 39.5442 46.1715 41.1461 48.1509 43.1751L54.1843 32.3998C51.2206 29.8581 47.9181 27.9038 44.2663 26.5475C40.625 25.1913 36.825 24.5078 32.8874 24.5078C29.8601 24.5078 26.9493 24.9029 24.1549 25.6932C21.3498 26.4835 18.7354 27.6048 16.3114 29.0358C13.8769 30.4668 11.654 32.1969 9.64289 34.2152C7.63175 36.2336 5.9064 38.4763 4.48802 40.9432C3.06963 43.4101 1.95822 46.0478 1.17493 48.8565C0.391643 51.6651 0 54.6019 0 57.6455C0 60.6891 0.391643 63.6365 1.17493 66.4772C1.95822 69.3179 3.06963 71.9663 4.48802 74.4332C5.9064 76.9001 7.63175 79.1428 9.64289 81.1612C11.654 83.1795 13.8769 84.9096 16.3114 86.3619C18.7354 87.8143 21.3604 88.9356 24.1549 89.7259C26.9599 90.5162 29.8707 90.9113 32.8874 90.9113C36.825 90.9113 40.625 90.2278 44.2663 88.8716C47.9075 87.5153 51.2206 85.561 54.1843 83.0193V52.5622H30.4846V64.5977H42.3292V76.4943C40.9214 77.1992 39.4395 77.7545 37.8835 78.1603C36.3275 78.5661 34.7186 78.7583 33.0674 78.7583C30.1989 78.7583 27.4997 78.203 24.9805 77.0924C22.4613 75.9817 20.249 74.476 18.3543 72.5644C16.4596 70.6528 14.9671 68.4208 13.8663 65.8578C12.7654 63.2948 12.215 60.5609 12.215 57.6241C12.215 54.6873 12.7654 52.0068 13.8663 49.4652C14.9671 46.9235 16.4596 44.7022 18.3543 42.812L18.3649 42.8334Z" fill="white"/>
<path d="M134.588 24.5078H122.627V90.9327H134.588V24.5078Z" fill="url(#paint4_linear_2453_987)"/>
<path d="M156.477 24.5078H144.516V26.932L156.477 47.009V24.5078Z" fill="white"/>
<path d="M190.413 90.9524V78.9062H175.467L182.643 90.9524H190.413Z" fill="white"/>
<path d="M81.4937 78.8633H65.5527V90.9308H74.3171H74.5711L81.7583 78.8633H81.4937Z" fill="white"/>
<path d="M97.6142 51.8167C96.9156 51.7419 96.217 51.6992 95.5078 51.6992H92.5652H81.9379C77.8097 51.6992 74.4543 48.3139 74.4543 44.149C74.4543 39.9841 77.8097 36.5988 81.9379 36.5988H106.95L111.205 29.4544V24.5312H81.9485C71.2259 24.5312 62.5039 33.3309 62.5039 44.149C62.5039 54.9671 71.2259 63.7668 81.9485 63.7668H85.0287H90.5117H90.7657L97.8576 51.8594C97.7835 51.8594 97.6989 51.8274 97.6248 51.8274L97.6142 51.8167Z" fill="white"/>
</g>
<defs>
<linearGradient id="paint0_linear_2453_987" x1="130.162" y1="39.7234" x2="174.973" y2="98.6646" gradientUnits="userSpaceOnUse">
<stop stop-color="#C7D64F"/>
<stop offset="0.64" stop-color="#86BC24"/>
<stop offset="1" stop-color="#5BADA7"/>
</linearGradient>
<linearGradient id="paint1_linear_2453_987" x1="107.934" y1="33.5839" x2="102.597" y2="34.5182" gradientUnits="userSpaceOnUse">
<stop stop-color="#C7D64F"/>
<stop offset="1" stop-color="#86BC24"/>
</linearGradient>
<linearGradient id="paint2_linear_2453_987" x1="119.07" y1="59.8649" x2="77.9363" y2="83.4064" gradientUnits="userSpaceOnUse">
<stop stop-color="#C7D64F"/>
<stop offset="0.3" stop-color="#86BC24"/>
<stop offset="1" stop-color="#5BADA7"/>
</linearGradient>
<linearGradient id="paint3_linear_2453_987" x1="122.522" y1="12.1406" x2="134.684" y2="12.1406" gradientUnits="userSpaceOnUse">
<stop stop-color="#C7D64F"/>
<stop offset="0.97" stop-color="#C7D64F"/>
</linearGradient>
<linearGradient id="paint4_linear_2453_987" x1="132.333" y1="100.672" x2="125.557" y2="23.9095" gradientUnits="userSpaceOnUse">
<stop offset="0.21" stop-color="#86BC24"/>
<stop offset="1" stop-color="#C7D64F"/>
</linearGradient>
<clipPath id="clip0_2453_987">
<rect width="190.414" height="90.9533" fill="white"/>
</clipPath>
</defs>
</svg>
