<svg xmlns="http://www.w3.org/2000/svg" xml:space="preserve" width="2113.0559" height="700" viewBox="0 0 2113.0559 700"><defs><clipPath id="a" clipPathUnits="userSpaceOnUse"><path d="M0 595.275h841.89V0H0Z"/></clipPath></defs><g clip-path="url(#a)" transform="matrix(10.82807 0 0 -10.82807 -3425.59 3814.042)"><path d="M0 0c0-.551.083-1.123.299-1.656.966-2.405 3.444-3.883 6.582-2.628.746.298 21.521 8.669 21.521 8.669s-8.179-20.739-8.491-21.512c-1.19-2.975.235-5.662 2.673-6.564a4.628 4.628 0 0 1 1.654-.291c1.986.01 3.743 1.181 4.602 3.523.13.354 10.357 28.439 10.584 29.114.134.398.367 1.343.371 1.99.007 1.394-.508 2.699-1.504 3.689-.985.98-2.279 1.487-3.654 1.48-.668-.001-1.208-.118-2.03-.38-.488-.158-26.857-9.971-29.113-10.809C1.24 3.78-.01 1.988 0 0" style="fill:#ed1c24;fill-opacity:1;fill-rule:nonzero;stroke:none" transform="translate(471.713 336.422)"/><path d="M0 0v.598h-15.985v-4.094h9.286c-2.42-7.66-11.072-12.16-11.072-12.16l2.314-3.231S0-12.506 0 0" style="fill:#454b51;fill-opacity:1;fill-rule:nonzero;stroke:none" transform="translate(422.303 320.582)"/><path d="M0 0v7.948h-5.669v-8.96c0-2.797 2.229-4.824 5.289-4.824h17.572v4.082H1.987C.61-1.754.024-1.205 0 0" style="fill:#454b51;fill-opacity:1;fill-rule:nonzero;stroke:none" transform="translate(417.257 293.426)"/><path d="M0 0v-4.092h6.746v-9.857h5.67V7.975h-5.67V0Z" style="fill:#454b51;fill-opacity:1;fill-rule:nonzero;stroke:none" transform="translate(421.662 313.645)"/><path d="M0 0h5.668v16.601H0v-5.169h-5.914V7.391H0Z" style="fill:#454b51;fill-opacity:1;fill-rule:nonzero;stroke:none" transform="translate(470.523 305.182)"/><path d="M0 0h-9.519c-1.383-.008-1.965.541-1.989 1.746v4.163H0Zm4.405 10.002h-21.583V.734c0-2.797 2.228-4.824 5.288-4.824H5.664V8.739a1.27 1.27 0 0 1-1.259 1.263" style="fill:#454b51;fill-opacity:1;fill-rule:nonzero;stroke:none" transform="translate(338.937 291.68)"/><path d="M0 0v.192h-23.535v-4.094H-5.94l.002-.936c0-3.799-.188-6.301-.289-7.318h-22.396v-4.092h34.51v4.092h-7.063C-.837-10.875 0-6.918 0 0" style="fill:#454b51;fill-opacity:1;fill-rule:nonzero;stroke:none" transform="translate(344.985 321.131)"/><path d="M0 0c0 2.795 2.328 5.068 5.194 5.068 2.862 0 5.193-2.273 5.193-5.068 0-2.799-2.331-5.07-5.193-5.07C2.328-5.07 0-2.799 0 0m8.026-8.869c4.709 1.031 8.195 4.557 8.195 8.743 0 2.251-1.011 4.309-2.669 5.896h6.015v4.091H8.026v3.862H2.362V9.861H-9.183V5.77h6.017C-4.825 4.183-5.833 2.125-5.833-.126c0-4.186 3.484-7.712 8.195-8.743v-4.143h-14.42v-4.094h34.5v4.094H8.026Z" style="fill:#454b51;fill-opacity:1;fill-rule:nonzero;stroke:none" transform="translate(372.192 308.5)"/><path d="M0 0h5.488c-.23 1.33-2.236 12.072-7.466 15.788h-6.329L-13.175-.135h5.687l3.244 11.465C-1.51 8.135-.185 1.049 0 0" style="fill:#454b51;fill-opacity:1;fill-rule:nonzero;stroke:none" transform="translate(459.685 305.536)"/><path d="M0 0c-1.444 0-1.704.367-1.704 1.592v.513h17.091v8.599c0 .744-.54 1.316-1.306 1.316H-7.267V8.077H9.961V5.971H-7.124V.881c0-2.947 2.121-4.824 5.293-4.824h17.59V0Z" style="fill:#454b51;fill-opacity:1;fill-rule:nonzero;stroke:none" transform="translate(460.81 291.533)"/></g></svg>