<svg width="314" height="100" viewBox="0 0 314 100" fill="none" xmlns="http://www.w3.org/2000/svg">
<g clip-path="url(#clip0_309_7145)">
<path d="M397.195 420.013C397.195 452.772 383.859 484.189 360.123 507.352C336.386 530.516 304.192 543.529 270.623 543.529H0V155.865H250.251C278.664 155.943 305.891 166.992 325.982 186.598C346.073 206.205 357.396 232.774 357.475 260.501C357.584 280.557 351.675 300.206 340.478 317.025C357.913 328.285 372.218 343.584 382.115 361.555C392.012 379.527 397.193 399.611 397.195 420.013ZM70.9405 295.968H250.793C260.384 295.968 269.583 292.25 276.365 285.632C283.147 279.013 286.957 270.037 286.957 260.678C286.957 251.318 283.147 242.342 276.365 235.724C269.583 229.105 260.384 225.387 250.793 225.387H70.9405V295.968ZM270.683 473.713C285.113 473.25 298.792 467.33 308.832 457.205C318.871 447.08 324.484 433.543 324.484 419.455C324.484 405.366 318.871 391.829 308.832 381.704C298.792 371.579 285.113 365.659 270.683 365.196H70.9405V474.243H270.683V473.713Z" fill="url(#paint0_linear_309_7145)"/>
<path d="M510.687 260.501V296.497H766.001V365.666H510.687V438.835C510.797 448.161 514.642 457.075 521.4 463.671C528.159 470.266 537.294 474.018 546.851 474.125H836.821V543.353H546.971C518.634 543.26 491.49 532.205 471.492 512.612C451.494 493.02 440.273 466.488 440.289 438.835V260.501C440.241 232.827 451.448 206.266 471.45 186.648C491.451 167.03 518.613 155.959 546.971 155.865H836.941V225.093H546.971C537.372 225.17 528.189 228.925 521.402 235.549C514.614 242.173 510.766 251.134 510.687 260.501Z" fill="url(#paint1_linear_309_7145)"/>
<path d="M878.349 365.666V296.615H1147.28V365.666H878.349Z" fill="url(#paint2_linear_309_7145)"/>
<path d="M1236.49 543.471V269.618H1307.43V543.471H1236.49Z" fill="url(#paint3_linear_309_7145)"/>
<path d="M1713 156.395V225.623H1549.9V544.059H1479.2V225.623H1236.49V156.395H1713Z" fill="url(#paint4_linear_309_7145)"/>
<path d="M1336.12 57.2879L1322.62 23.0563L1289.89 35.8785V0H1253.54V35.9373L1219.73 22.9387L1208.4 57.3467L1242.33 68.8749L1220.64 97.6953L1251.01 118.34L1271.45 88.7551L1293.44 118.458L1322.01 97.5189L1300.5 68.9925L1336.12 57.2879Z" fill="url(#paint5_linear_309_7145)"/>
</g>
<defs>
<linearGradient id="paint0_linear_309_7145" x1="-6.14778" y1="349.668" x2="1834.27" y2="349.668" gradientUnits="userSpaceOnUse">
<stop stop-color="#C9D565"/>
<stop offset="1" stop-color="#75AF98"/>
</linearGradient>
<linearGradient id="paint1_linear_309_7145" x1="-6.148" y1="349.668" x2="1834.27" y2="349.668" gradientUnits="userSpaceOnUse">
<stop stop-color="#C9D565"/>
<stop offset="1" stop-color="#75AF98"/>
</linearGradient>
<linearGradient id="paint2_linear_309_7145" x1="-6.14789" y1="331.199" x2="1834.27" y2="331.199" gradientUnits="userSpaceOnUse">
<stop stop-color="#C9D565"/>
<stop offset="1" stop-color="#75AF98"/>
</linearGradient>
<linearGradient id="paint3_linear_309_7145" x1="-6.1479" y1="406.544" x2="1834.27" y2="406.544" gradientUnits="userSpaceOnUse">
<stop stop-color="#C9D565"/>
<stop offset="1" stop-color="#75AF98"/>
</linearGradient>
<linearGradient id="paint4_linear_309_7145" x1="-6.14752" y1="350.256" x2="1834.27" y2="350.256" gradientUnits="userSpaceOnUse">
<stop stop-color="#C9D565"/>
<stop offset="1" stop-color="#75AF98"/>
</linearGradient>
<linearGradient id="paint5_linear_309_7145" x1="-6.14671" y1="59.2289" x2="1834.27" y2="59.2289" gradientUnits="userSpaceOnUse">
<stop stop-color="#C9D565"/>
<stop offset="1" stop-color="#75AF98"/>
</linearGradient>
<clipPath id="clip0_309_7145">
<rect width="1713" height="544" fill="white"/>
</clipPath>
</defs>
</svg>
