<svg width="226" height="70" viewBox="0 0 226 70" fill="none" xmlns="http://www.w3.org/2000/svg">
<path d="M51.2982 20.8171C51.0732 20.8351 52.8412 16.1171 47.1362 17.1471C32.0542 19.8671 21.3962 29.9111 19.1522 32.7871C16.9082 35.6631 10.0342 47.6561 28.1992 46.2531C46.3642 44.8501 56.3992 34.4271 57.7992 32.5061C63.2452 25.0001 61.1142 20.0271 51.2982 20.8171ZM47.5812 18.3631C47.5812 18.3631 51.1462 17.5441 49.6812 21.0741C49.6812 21.0741 40.7972 21.9161 28.4062 29.2571C33.2188 23.3653 40.0562 19.4807 47.5812 18.3631ZM42.8522 41.4791C34.2382 44.6921 26.0522 44.0891 24.5782 40.1281C23.1042 36.1671 28.8862 30.3521 37.5002 27.1381C46.1142 23.9241 54.3002 24.5261 55.7732 28.4871C57.2462 32.4481 51.4652 38.2631 42.8522 41.4791Z" fill="#DE3E47"/>
<path d="M60.7762 51.9751L64.5942 30.3251H70.2252L69.8142 32.6351C70.5327 31.842 71.3774 31.1733 72.3142 30.6561C73.2604 30.1963 74.2992 29.9589 75.3512 29.9621C76.2463 29.8885 77.1435 30.0769 77.9334 30.5043C78.7234 30.9317 79.372 31.5796 79.8002 32.3691C80.6987 34.2198 80.9369 36.3223 80.4752 38.3271C80.1894 40.5909 79.157 42.6949 77.5412 44.3061C76.1692 45.6305 74.3362 46.3699 72.4292 46.3681C71.5867 46.385 70.7502 46.2228 69.9752 45.8921C69.2675 45.5778 68.6489 45.0926 68.1752 44.4801L66.8522 51.9751H60.7762ZM69.2362 38.1931C68.9765 39.1167 69.084 40.1049 69.5362 40.9511C69.7376 41.2448 70.0111 41.4819 70.3305 41.6395C70.65 41.7971 71.0045 41.87 71.3602 41.8511C71.7207 41.8449 72.0762 41.7653 72.405 41.617C72.7337 41.4688 73.0288 41.2552 73.2722 40.9891C73.9624 40.1563 74.3895 39.1371 74.4992 38.0611C74.761 37.1289 74.6731 36.1331 74.2522 35.2611C74.081 34.9801 73.8384 34.7495 73.5491 34.5928C73.2598 34.4361 72.9341 34.3589 72.6052 34.3691C72.2157 34.3728 71.8308 34.4543 71.4733 34.6088C71.1158 34.7634 70.7927 34.9879 70.5232 35.2691C69.8006 36.0862 69.3508 37.1083 69.2362 38.1931Z" fill="#384C9B"/>
<path d="M37.1902 30.3151H42.9702L43.7702 40.0441L48.6492 30.3151H54.0082L55.5792 40.1241L59.8142 30.3151H65.5582L57.0742 45.9001H51.7602L50.2602 36.5251L45.5542 45.9001H40.2202L37.1902 30.3151Z" fill="#384C9B"/>
<path d="M119.514 31.8551H106.83V34.5001H117.16V37.3711H105.84V40.0571H112.026V41.4961H106.872V44.1801H117.203V47.2941H119.55V41.4941H114.375V40.0551H120.561V37.3691H119.514V31.8551Z" fill="#384C9B"/>
<path d="M152.122 31.8551H149.774V33.1871H142.652V31.8551H140.304V40.4551H152.122V31.8551ZM149.774 36.0501V37.5681H142.652V36.0501H149.774Z" fill="#384C9B"/>
<path d="M138.832 41.3051V44.1051H145.014V47.0901H147.364V44.1061H153.551V41.3061L138.832 41.3051Z" fill="#384C9B"/>
<path d="M163.614 31.8551H161.264V33.6601H158.264V31.8551H155.914V40.3871H163.614V31.8551ZM161.264 36.2551V37.7801H158.264V36.2601L161.264 36.2551Z" fill="#384C9B"/>
<path d="M158.728 46.5731H168.45V41.0261H156.379V43.5421H166.103V44.0551H156.379V49.6451H168.779V47.1291H158.728V46.5731Z" fill="#384C9B"/>
<path d="M168.45 31.8791H166.103V40.3871H168.45V37.3121H170.085V34.6281H168.45V31.8791Z" fill="#384C9B"/>
<path d="M175.058 41.5121H172.707V46.3681H185.707V43.6821H175.058V41.5121Z" fill="#384C9B"/>
<path d="M183.357 31.8551V34.6321H180.95V37.3191H183.357V40.4331H185.707V31.8551H183.357Z" fill="#384C9B"/>
<path d="M173.432 40.5551C173.432 40.5551 176.11 37.6551 176.306 37.4421L179.201 40.5521L180.829 38.2261C180.829 38.2261 177.556 34.9691 177.129 34.5391H180.214V31.8551H172.386V34.5391H175.472C175.047 34.9691 171.83 38.2041 171.83 38.2041L173.432 40.5551Z" fill="#384C9B"/>
<path d="M197.558 40.5551C197.558 40.5551 200.236 37.6551 200.432 37.4421L203.332 40.5521L204.96 38.2261C204.96 38.2261 201.687 34.9691 201.26 34.5391H204.342V31.8551H196.515V34.5391H199.601C199.176 34.9691 195.959 38.2041 195.959 38.2041L197.558 40.5551Z" fill="#384C9B"/>
<path d="M192.37 31.9701H190.951V46.9121H192.37V31.9701Z" fill="#384C9B"/>
<path d="M194.214 43.9621H199.557V46.9471H201.338V43.9621H206.683V41.4491H194.214V43.9621Z" fill="#384C9B"/>
<path d="M209.955 31.9701H208.534V46.9121H209.955V31.9701Z" fill="#384C9B"/>
<path d="M97.6991 36.6881C97.6799 35.7033 97.2802 34.7641 96.5836 34.0676C95.8871 33.3711 94.948 32.9713 93.9632 32.9521C93.4559 32.9418 92.9518 33.0355 92.4821 33.2274C92.0124 33.4193 91.587 33.7055 91.2321 34.0681C90.8715 34.4011 90.5858 34.8068 90.3937 35.2585C90.2017 35.7101 90.1077 36.1974 90.1181 36.6881C90.1148 37.178 90.2119 37.6633 90.4035 38.1141C90.5952 38.5649 90.8772 38.9716 91.2321 39.3091C91.5786 39.6865 92.0011 39.986 92.4719 40.1878C92.9427 40.3897 93.451 40.4893 93.9632 40.4801C94.458 40.4813 94.9474 40.3776 95.3992 40.1757C95.851 39.9739 96.2549 39.6785 96.5842 39.3091C96.9391 38.9715 97.2211 38.5648 97.4129 38.114C97.6046 37.6632 97.7021 37.178 97.6991 36.6881ZM94.9391 37.7161C94.8121 37.8579 94.6565 37.9713 94.4827 38.0488C94.3088 38.1263 94.1205 38.1663 93.9301 38.1661C93.733 38.1694 93.5374 38.1311 93.3561 38.0535C93.1748 37.976 93.0119 37.861 92.8781 37.7161C92.7416 37.5859 92.633 37.4291 92.5593 37.2555C92.4855 37.0818 92.448 36.8948 92.4491 36.7061C92.4452 36.5169 92.4815 36.3289 92.5554 36.1547C92.6293 35.9804 92.7393 35.8238 92.8781 35.6951C93.0148 35.5555 93.1787 35.4454 93.3597 35.3716C93.5406 35.2978 93.7348 35.2619 93.9301 35.2661C94.2151 35.2638 94.4941 35.3467 94.7315 35.5043C94.9689 35.6619 95.1538 35.8868 95.2623 36.1503C95.3708 36.4137 95.398 36.7036 95.3404 36.9827C95.2828 37.2617 95.1431 37.5171 94.9391 37.7161Z" fill="#384C9B"/>
<path d="M92.5932 41.4921H90.2441V46.3481H102.882V43.6621H92.5932V41.4921Z" fill="#384C9B"/>
<path d="M102.484 34.6151V31.8641H100.136V40.4131H102.484V37.3001H104.114V34.6151H102.484Z" fill="#384C9B"/>
<path d="M97.9142 31.8511H95.0141V29.9621H92.6651V31.8511H89.7441V34.6661H97.9142V31.8511Z" fill="#384C9B"/>
<path d="M133.868 31.8671V34.6171H131.468V37.3001H133.868V46.3661H136.214V31.8661H133.865L133.868 31.8671Z" fill="#384C9B"/>
<path d="M126.396 31.8551L122.347 40.0001L124.562 41.5081L126.882 36.8651L129.222 41.5051L131.463 40.0001L127.414 31.8551H126.396Z" fill="#384C9B"/>
</svg>
