<svg width="398" height="56" viewBox="0 0 398 56" fill="none" xmlns="http://www.w3.org/2000/svg">
<g clip-path="url(#clip0_2497_1474)">
<path d="M55.2704 6.62969C54.9217 6.65528 57.6777 -0.71527 48.7802 0.888507C25.2776 5.14534 8.66492 20.8504 5.16887 25.3461C1.67282 29.8418 -9.045 48.5838 19.2722 46.3914C47.5893 44.199 63.2323 27.9053 65.4098 24.9025C73.899 13.1728 70.5731 5.39273 55.279 6.62969H55.2704ZM49.4777 2.79086C49.4777 2.79086 55.0323 1.51125 52.7526 7.03063C52.7526 7.03063 38.9045 8.34436 19.5954 19.8182C19.5954 19.8182 29.6497 5.81927 49.4777 2.79086ZM42.1028 38.927C28.68 43.9516 15.9207 43.0047 13.6155 36.8114C11.3104 30.6181 20.3269 21.5329 33.7582 16.5083C47.1895 11.4837 59.9404 12.4221 62.237 18.6154C64.5422 24.8087 55.5256 33.8939 42.0943 38.927H42.1028Z" fill="#DD0041"/>
<path d="M70.0449 55.3426L75.9993 21.5012H84.7777L84.1397 25.1097C85.6198 23.5913 86.9212 22.5505 88.027 22.0131C89.5241 21.288 91.0978 20.9297 92.765 20.9297C96.0399 20.9297 98.3536 22.1837 99.6976 24.6917C101.05 27.1998 101.399 30.305 100.752 34.0073C100.038 38.0935 98.5067 41.2072 96.176 43.357C93.8453 45.5067 91.1914 46.5816 88.2057 46.5816C86.7596 46.5816 85.4837 46.3342 84.3779 45.8394C83.2721 45.3446 82.3364 44.611 81.5708 43.63L79.5123 55.3426H70.0449ZM83.2295 33.8026C82.8893 35.739 83.0509 37.1722 83.6974 38.1106C84.3439 39.049 85.2966 39.5181 86.5385 39.5181C87.6273 39.5181 88.6225 39.066 89.5156 38.1703C90.4173 37.266 91.0468 35.7476 91.4295 33.5893C91.7783 31.6016 91.6422 30.1514 91.0467 29.2216C90.4428 28.2917 89.5837 27.831 88.4779 27.831C87.2785 27.831 86.1982 28.3002 85.237 29.2386C84.2758 30.177 83.6038 31.6955 83.238 33.8026H83.2295Z" fill="#0058A6"/>
<path d="M33.2812 21.4844H42.2893L43.5312 36.6947L51.1358 21.4844H59.4889L61.9387 36.8141L68.5565 21.4844H77.5135L64.2779 45.8396H55.9928L53.6536 31.1838L46.3213 45.8396H38.0107L33.2898 21.4844H33.2812Z" fill="#0058A6"/>
<path d="M187.309 9.45703H157.809V15.6247H181.839V22.3214H155.504V28.5915H169.896V31.944H157.903V38.2056H181.941V45.4738H187.402V31.944H175.366V28.5915H189.758V22.3214H187.309V9.45703Z" fill="#0058A6"/>
<path d="M263.191 9.45703H257.73V12.5622H241.16V9.45703H235.699V29.5213H263.191V9.45703ZM257.73 19.2418V22.782H241.16V19.2418H257.73Z" fill="#0058A6"/>
<path d="M232.264 31.5V38.0345H246.656V44.9956H252.126V38.0345H266.518V31.5H232.264Z" fill="#0058A6"/>
<path d="M289.919 9.45703H284.449V13.6712H277.482V9.45703H272.021V29.3678H289.927V9.45703H289.919ZM284.449 19.7366V23.2939H277.482V19.7366H284.449Z" fill="#0058A6"/>
<path d="M278.553 43.7927H301.172V30.8516H273.084V36.7207H295.702V37.915H273.084V50.9585H301.937V45.0893H278.545V43.7927H278.553Z" fill="#0058A6"/>
<path d="M301.182 9.50781H295.721V29.3588H301.182V22.1845H304.984V15.9229H301.182V9.50781Z" fill="#0058A6"/>
<path d="M316.552 31.9851H311.082V43.3139H341.33V37.0438H316.552V31.9766V31.9851Z" fill="#0058A6"/>
<path d="M335.861 9.45703V15.9404H330.264V22.2105H335.861V29.4787H341.33V9.46556H335.861V9.45703Z" fill="#0058A6"/>
<path d="M312.766 29.7509C312.766 29.7509 319.001 22.9775 319.452 22.4913C319.903 22.986 326.189 29.7509 326.189 29.7509L329.974 24.3254C329.974 24.3254 322.361 16.7245 321.357 15.7264H328.528V9.46484H310.316V15.7264H317.496C316.509 16.7245 309.023 24.2742 309.023 24.2742L312.758 29.7594L312.766 29.7509Z" fill="#0058A6"/>
<path d="M368.899 29.7509C368.899 29.7509 375.134 22.9775 375.585 22.4913C376.036 22.986 382.322 29.7509 382.322 29.7509L386.107 24.3254C386.107 24.3254 378.494 16.7245 377.49 15.7264H384.661V9.46484H366.449V15.7264H373.628C372.642 16.7245 365.156 24.2742 365.156 24.2742L368.89 29.7594L368.899 29.7509Z" fill="#0058A6"/>
<path d="M356.83 9.71875H353.529V44.5838H356.83V9.71875Z" fill="#0058A6"/>
<path d="M361.125 37.7005H373.561V44.6701H377.704V37.7005H390.14V31.8398H361.125V37.7005Z" fill="#0058A6"/>
<path d="M397.744 9.71875H394.436V44.5838H397.744V9.71875Z" fill="#0058A6"/>
<path d="M136.57 20.734C136.57 18.3881 135.702 16.3578 133.975 14.6175C132.24 12.8858 130.215 12.0156 127.876 12.0156C125.367 12.0156 123.249 12.8858 121.522 14.6175C119.787 16.2639 118.928 18.3028 118.928 20.734C118.928 23.1653 119.787 25.1188 121.522 26.8506C123.249 28.6761 125.367 29.5804 127.876 29.5804C130.215 29.5804 132.24 28.6676 133.975 26.8506C135.702 25.1188 136.57 23.08 136.57 20.734ZM130.147 23.1312C129.484 23.8307 128.701 24.1804 127.8 24.1804C126.83 24.1804 126.013 23.8307 125.35 23.1312C124.686 22.4572 124.355 21.6809 124.355 20.7767C124.355 19.8724 124.686 19.0535 125.35 18.4222C126.013 17.7568 126.83 17.4241 127.8 17.4241C128.701 17.4241 129.484 17.7568 130.147 18.4222C130.811 19.0961 131.151 19.8724 131.151 20.7767C131.151 21.6809 130.819 22.4658 130.147 23.1312Z" fill="#0058A6"/>
<path d="M124.694 31.946H119.225V43.2748H148.631V37.0048H124.694V31.9375V31.946Z" fill="#0058A6"/>
<path d="M147.705 15.9002V9.47656H142.244V29.4214H147.705V22.1532H151.499V15.8917H147.705V15.9002Z" fill="#0058A6"/>
<path d="M137.08 9.44945H130.334V5.03906H124.865V9.44945H118.068V16.0181H137.08V9.44945Z" fill="#0058A6"/>
<path d="M220.722 9.48438V15.8995H215.125V22.161H220.722V43.3172H226.183V9.48438H220.722Z" fill="#0058A6"/>
<path d="M203.334 9.45703L193.918 28.472L199.073 31.9867L204.466 21.1527L209.91 31.9782L215.124 28.472L205.708 9.45703H203.334Z" fill="#0058A6"/>
</g>
<defs>
<clipPath id="clip0_2497_1474">
<rect width="397.487" height="54.6806" fill="white" transform="translate(0.255859 0.660156)"/>
</clipPath>
</defs>
</svg>
