<svg width="24" height="24" viewBox="0 0 24 24" fill="none" xmlns="http://www.w3.org/2000/svg">
<mask id="mask0_891_1963" style="mask-type:alpha" maskUnits="userSpaceOnUse" x="0" y="0" width="24" height="24">
<rect width="24" height="24" fill="#D9D9D9"/>
</mask>
<g mask="url(#mask0_891_1963)">
<path d="M10.5 10.9999C9.53747 10.9999 8.71352 10.6572 8.0281 9.97183C7.3427 9.28641 7 8.46246 7 7.49997C7 6.53747 7.3427 5.71353 8.0281 5.02813C8.71352 4.34271 9.53747 4 10.5 4C11.4625 4 12.2864 4.34271 12.9718 5.02813C13.6572 5.71353 13.9999 6.53747 13.9999 7.49997C13.9999 8.46246 13.6572 9.28641 12.9718 9.97183C12.2864 10.6572 11.4625 10.9999 10.5 10.9999ZM3.90383 18.6153C3.64774 18.6153 3.43308 18.5287 3.25985 18.3554C3.08662 18.1822 3 17.9675 3 17.7115V16.2692C3 15.8487 3.13558 15.4452 3.40673 15.0586C3.67788 14.6721 4.06665 14.3525 4.57305 14.1C5.45382 13.6359 6.39808 13.2724 7.40583 13.0096C8.41359 12.7468 9.44497 12.6154 10.5 12.6154C10.9115 12.6154 11.3346 12.6391 11.7692 12.6865C12.2038 12.734 12.6172 12.8051 13.0095 12.9V13.873C12.8403 13.9435 12.6993 14.0114 12.5864 14.0767C12.4735 14.142 12.3549 14.2139 12.2307 14.2922C11.9499 14.2281 11.6615 14.1826 11.3653 14.1557C11.0692 14.1288 10.7807 14.1153 10.5 14.1153C9.56533 14.1153 8.64675 14.2224 7.7442 14.4365C6.84163 14.6506 5.97817 14.9743 5.1538 15.4076C4.9615 15.5102 4.80445 15.6445 4.68265 15.8105C4.56085 15.9765 4.49995 16.1704 4.49995 16.3922V17.1153H10.5V18.6153H3.90383ZM10.5 9.49997C11.05 9.49997 11.5208 9.30414 11.9125 8.91248C12.3041 8.52081 12.5 8.04997 12.5 7.49997C12.5 6.94998 12.3041 6.47914 11.9125 6.08747C11.5208 5.69581 11.05 5.49997 10.5 5.49997C9.94995 5.49997 9.47912 5.69581 9.08745 6.08747C8.69578 6.47914 8.49995 6.94998 8.49995 7.49997C8.49995 8.04997 8.69578 8.52081 9.08745 8.91248C9.47912 9.30414 9.94995 9.49997 10.5 9.49997Z" fill="#1C1B1F"/>
<path fill-rule="evenodd" clip-rule="evenodd" d="M16.7539 13.3086C16.7539 12.8944 16.4181 12.5586 16.0039 12.5586C15.5897 12.5586 15.2539 12.8944 15.2539 13.3086V15.8711H12.6924C12.2782 15.8711 11.9424 16.2069 11.9424 16.6211C11.9424 17.0353 12.2782 17.3711 12.6924 17.3711H15.2539V19.9303C15.2539 20.3445 15.5897 20.6803 16.0039 20.6803C16.4181 20.6803 16.7539 20.3445 16.7539 19.9303V17.3711H19.3141C19.7283 17.3711 20.0641 17.0353 20.0641 16.6211C20.0641 16.2069 19.7283 15.8711 19.3141 15.8711H16.7539V13.3086Z" fill="#1C1B1F"/>
</g>
</svg>
