<svg width="25" height="24" viewBox="0 0 25 24" fill="none" xmlns="http://www.w3.org/2000/svg">
<mask id="mask0_618_3251" style="mask-type:alpha" maskUnits="userSpaceOnUse" x="0" y="0" width="25" height="24">
<rect x="0.5" width="24" height="24" fill="#D9D9D9"/>
</mask>
<g mask="url(#mask0_618_3251)">
<path d="M5.24995 20.5771C4.84098 20.5771 4.48875 20.4294 4.19325 20.1338C3.89775 19.8383 3.75 19.4861 3.75 19.0771V8.57712C3.75 8.16816 3.89775 7.81592 4.19325 7.5204C4.48875 7.2249 4.84098 7.07715 5.24995 7.07715H7.75V4.57712C7.75 4.16816 7.89775 3.81592 8.19325 3.5204C8.48875 3.2249 8.84098 3.07715 9.24995 3.07715H15.75C16.159 3.07715 16.5112 3.2249 16.8067 3.5204C17.1022 3.81592 17.25 4.16816 17.25 4.57712V11.0771H19.75C20.159 11.0771 20.5112 11.2249 20.8067 11.5204C21.1022 11.8159 21.25 12.1682 21.25 12.5771V19.0771C21.25 19.4861 21.1022 19.8383 20.8067 20.1338C20.5112 20.4294 20.159 20.5771 19.75 20.5771H13.75V16.5771H11.25V20.5771H5.24995ZM5.24995 19.0771H7.75V16.5771H5.24995V19.0771ZM5.24995 15.0771H7.75V12.5771H5.24995V15.0771ZM5.24995 11.0771H7.75V8.57712H5.24995V11.0771ZM9.24995 15.0771H11.75V12.5771H9.24995V15.0771ZM9.24995 11.0771H11.75V8.57712H9.24995V11.0771ZM9.24995 7.07715H11.75V4.57712H9.24995V7.07715ZM13.25 15.0771H15.75V12.5771H13.25V15.0771ZM13.25 11.0771H15.75V8.57712H13.25V11.0771ZM13.25 7.07715H15.75V4.57712H13.25V7.07715ZM17.25 19.0771H19.75V16.5771H17.25V19.0771ZM17.25 15.0771H19.75V12.5771H17.25V15.0771Z" fill="#1C1B1F"/>
</g>
</svg>
