<svg width="32" height="33" viewBox="0 0 32 33" fill="none" xmlns="http://www.w3.org/2000/svg">
<mask id="mask0_713_7845" style="mask-type:alpha" maskUnits="userSpaceOnUse" x="0" y="0" width="32" height="33">
<rect y="0.451172" width="32" height="32" fill="#D9D9D9"/>
</mask>
<g mask="url(#mask0_713_7845)">
<path d="M8.33418 7.57153C8.12201 7.57153 7.91852 7.65582 7.76849 7.80585C7.61847 7.95588 7.53418 8.15936 7.53418 8.37153C7.53418 8.58371 7.61847 8.78719 7.76849 8.93722C7.91852 9.08725 8.12201 9.17153 8.33418 9.17153H17.6675C17.8797 9.17153 18.0832 9.08725 18.2332 8.93722C18.3832 8.78719 18.4675 8.58371 18.4675 8.37153C18.4675 8.15936 18.3832 7.95588 18.2332 7.80585C18.0832 7.65582 17.8797 7.57153 17.6675 7.57153H8.33418Z" fill="#294E92"/>
<path d="M14.8275 12.2253C14.8275 12.0131 14.7432 11.8096 14.5932 11.6596C14.4432 11.5096 14.2397 11.4253 14.0275 11.4253H8.33418C8.22912 11.4253 8.12509 11.446 8.02803 11.4862C7.93097 11.5264 7.84278 11.5853 7.76849 11.6596C7.69421 11.7339 7.63528 11.8221 7.59508 11.9191C7.55487 12.0162 7.53418 12.1202 7.53418 12.2253C7.53418 12.3304 7.55487 12.4344 7.59508 12.5314C7.63528 12.6285 7.69421 12.7167 7.76849 12.791C7.84278 12.8653 7.93097 12.9242 8.02803 12.9644C8.12509 13.0046 8.22912 13.0253 8.33418 13.0253H14.0275C14.2397 13.0253 14.4432 12.941 14.5932 12.791C14.7432 12.6409 14.8275 12.4375 14.8275 12.2253Z" fill="#294E92"/>
<path d="M4.12209 21.0108H12.7888C12.8548 20.4667 12.9754 19.9307 13.1488 19.4108H4.92209V5.3841C4.92209 5.20729 4.99233 5.03772 5.11735 4.91269C5.24237 4.78767 5.41194 4.71743 5.58875 4.71743H22.4554C22.6322 4.71743 22.8018 4.78767 22.9268 4.91269C23.0519 5.03772 23.1221 5.20729 23.1221 5.3841V12.9974C23.6648 13.05 24.2009 13.1572 24.7221 13.3174V5.3841C24.7221 4.78294 24.4833 4.20641 24.0582 3.78132C23.6331 3.35624 23.0566 3.11743 22.4554 3.11743H5.58875C4.9876 3.11743 4.41106 3.35624 3.98598 3.78132C3.5609 4.20641 3.32209 4.78294 3.32209 5.3841V19.4108H2.12209C2.01828 19.409 1.91518 19.4281 1.81892 19.467C1.72266 19.5059 1.63522 19.5637 1.56181 19.6372C1.4884 19.7106 1.43052 19.798 1.39162 19.8943C1.35273 19.9905 1.33362 20.0936 1.33542 20.1974V24.4508C1.33184 24.5545 1.3492 24.658 1.38645 24.7549C1.42371 24.8518 1.48011 24.9403 1.55228 25.0149C1.62445 25.0896 1.71091 25.1489 1.80652 25.1895C1.90213 25.23 2.00492 25.2508 2.10875 25.2508H13.1354C12.9621 24.7309 12.8415 24.1948 12.7754 23.6508H2.86875V20.9841L4.12209 21.0108Z" fill="#294E92"/>
<path d="M22.0271 14.7318C20.5213 14.7292 19.0485 15.1731 17.7951 16.0075C16.5416 16.8419 15.5637 18.0292 14.985 19.4193C14.4064 20.8095 14.2529 22.34 14.5441 23.8174C14.8353 25.2947 15.558 26.6525 16.6209 27.7191C17.6837 28.7858 19.039 29.5132 20.5154 29.8096C21.9917 30.1059 23.5227 29.9578 24.9149 29.384C26.3071 28.8102 27.4978 27.8365 28.3366 26.586C29.1753 25.3354 29.6244 23.8643 29.627 22.3585C29.6288 21.3587 29.4336 20.3683 29.0526 19.444C28.6716 18.5196 28.1123 17.6793 27.4066 16.9711C26.7009 16.2629 25.8626 15.7007 24.9395 15.3165C24.0165 14.9322 23.0268 14.7336 22.0271 14.7318ZM24.9337 22.7318L20.5337 25.1985C20.4848 25.227 20.4307 25.2454 20.3746 25.2528C20.3185 25.2601 20.2615 25.2562 20.2069 25.2413C20.1523 25.2264 20.1012 25.2008 20.0566 25.166C20.012 25.1312 19.9747 25.0878 19.947 25.0385C19.9334 24.9725 19.9334 24.9045 19.947 24.8385V19.8652C19.9464 19.7899 19.9656 19.7159 20.0028 19.6505C20.0399 19.5851 20.0937 19.5307 20.1587 19.4928C20.2237 19.4549 20.2975 19.4348 20.3728 19.4347C20.448 19.4345 20.5219 19.4542 20.5871 19.4918L24.9871 22.0385C25.0308 22.0735 25.0673 22.1168 25.0944 22.1659C25.1214 22.215 25.1385 22.2689 25.1447 22.3247C25.1509 22.3804 25.1461 22.4368 25.1305 22.4906C25.1148 22.5445 25.0888 22.5947 25.0537 22.6385C25.0387 22.6669 25.0155 22.6901 24.9871 22.7052L24.9337 22.7318Z" fill="#294E92"/>
</g>
</svg>
