<svg width="32" height="32" viewBox="0 0 32 32" fill="none" xmlns="http://www.w3.org/2000/svg">
<mask id="mask0_713_7832" style="mask-type:alpha" maskUnits="userSpaceOnUse" x="0" y="0" width="32" height="32">
<rect width="32" height="32" fill="#D9D9D9"/>
</mask>
<g mask="url(#mask0_713_7832)">
<path d="M8.33418 7.12036C8.12201 7.12036 7.91852 7.20465 7.76849 7.35468C7.61847 7.50471 7.53418 7.70819 7.53418 7.92036C7.53418 8.13253 7.61847 8.33602 7.76849 8.48605C7.91852 8.63608 8.12201 8.72036 8.33418 8.72036H17.6675C17.8797 8.72036 18.0832 8.63608 18.2332 8.48605C18.3832 8.33602 18.4675 8.13253 18.4675 7.92036C18.4675 7.70819 18.3832 7.50471 18.2332 7.35468C18.0832 7.20465 17.8797 7.12036 17.6675 7.12036H8.33418Z" fill="#294E92"/>
<path d="M14.8275 11.7741C14.8275 11.5619 14.7432 11.3585 14.5932 11.2084C14.4432 11.0584 14.2397 10.9741 14.0275 10.9741H8.33418C8.22912 10.9741 8.12509 10.9948 8.02803 11.035C7.93097 11.0752 7.84278 11.1341 7.76849 11.2084C7.69421 11.2827 7.63528 11.3709 7.59508 11.468C7.55487 11.565 7.53418 11.6691 7.53418 11.7741C7.53418 11.8792 7.55487 11.9832 7.59508 12.0803C7.63528 12.1773 7.69421 12.2655 7.76849 12.3398C7.84278 12.4141 7.93097 12.473 8.02803 12.5132C8.12509 12.5534 8.22912 12.5741 8.33418 12.5741H14.0275C14.2397 12.5741 14.4432 12.4898 14.5932 12.3398C14.7432 12.1898 14.8275 11.9863 14.8275 11.7741Z" fill="#294E92"/>
<path d="M4.12209 20.5596H12.7888C12.8548 20.0155 12.9754 19.4795 13.1488 18.9596H4.92209V4.93293C4.92209 4.75612 4.99233 4.58655 5.11735 4.46152C5.24237 4.3365 5.41194 4.26626 5.58875 4.26626H22.4554C22.6322 4.26626 22.8018 4.3365 22.9268 4.46152C23.0519 4.58655 23.1221 4.75612 23.1221 4.93293V12.5463C23.6648 12.5988 24.2009 12.7061 24.7221 12.8663V4.93293C24.7221 4.33177 24.4833 3.75523 24.0582 3.33015C23.6331 2.90507 23.0566 2.66626 22.4554 2.66626H5.58875C4.9876 2.66626 4.41106 2.90507 3.98598 3.33015C3.5609 3.75523 3.32209 4.33177 3.32209 4.93293V18.9596H2.12209C2.01828 18.9578 1.91518 18.9769 1.81892 19.0158C1.72266 19.0547 1.63522 19.1126 1.56181 19.186C1.4884 19.2594 1.43052 19.3468 1.39162 19.4431C1.35273 19.5394 1.33362 19.6425 1.33542 19.7463V23.9996C1.33184 24.1034 1.3492 24.2068 1.38645 24.3037C1.42371 24.4007 1.48011 24.4891 1.55228 24.5637C1.62445 24.6384 1.71091 24.6978 1.80652 24.7383C1.90213 24.7788 2.00492 24.7997 2.10875 24.7996H13.1354C12.9621 24.2797 12.8415 23.7436 12.7754 23.1996H2.86875V20.5329L4.12209 20.5596Z" fill="#294E92"/>
<path d="M22.0271 14.2807C20.5213 14.278 19.0485 14.722 17.7951 15.5563C16.5416 16.3907 15.5637 17.578 14.985 18.9682C14.4064 20.3583 14.2529 21.8888 14.5441 23.3662C14.8353 24.8435 15.558 26.2014 16.6209 27.268C17.6837 28.3346 19.039 29.0621 20.5154 29.3584C21.9917 29.6548 23.5227 29.5067 24.9149 28.9329C26.3071 28.3591 27.4978 27.3853 28.3366 26.1348C29.1753 24.8843 29.6244 23.4131 29.627 21.9073C29.6288 20.9075 29.4336 19.9172 29.0526 18.9928C28.6716 18.0684 28.1123 17.2282 27.4066 16.52C26.7009 15.8118 25.8626 15.2495 24.9395 14.8653C24.0165 14.4811 23.0268 14.2824 22.0271 14.2807ZM25.2671 20.614L21.3337 24.614C21.2717 24.6784 21.197 24.7294 21.1145 24.7638C21.0319 24.7982 20.9432 24.8153 20.8537 24.814C20.7663 24.8151 20.6796 24.7978 20.5992 24.7634C20.5189 24.7289 20.4466 24.678 20.387 24.614L18.2937 22.5207C18.2312 22.4587 18.1816 22.3849 18.1478 22.3037C18.1139 22.2225 18.0965 22.1353 18.0965 22.0473C18.0965 21.9593 18.1139 21.8722 18.1478 21.7909C18.1816 21.7097 18.2312 21.636 18.2937 21.574C18.4183 21.4518 18.5859 21.3834 18.7604 21.3834C18.9349 21.3834 19.1024 21.4518 19.227 21.574L20.8537 23.2007L24.3204 19.734C24.3824 19.6715 24.4561 19.6219 24.5373 19.5881C24.6186 19.5542 24.7057 19.5368 24.7937 19.5368C24.8817 19.5368 24.9689 19.5542 25.0501 19.5881C25.1313 19.6219 25.2051 19.6715 25.2671 19.734C25.3713 19.8569 25.4286 20.0128 25.4286 20.174C25.4286 20.3352 25.3713 20.4911 25.2671 20.614Z" fill="#294E92"/>
</g>
</svg>
