<svg width="32" height="32" viewBox="0 0 32 32" fill="none" xmlns="http://www.w3.org/2000/svg">
<mask id="mask0_1526_2712" style="mask-type:alpha" maskUnits="userSpaceOnUse" x="0" y="0" width="32" height="32">
<rect width="32" height="32" fill="#D9D9D9"/>
</mask>
<g mask="url(#mask0_1526_2712)">
<path d="M8.33418 7.12036C8.12201 7.12036 7.91852 7.20465 7.76849 7.35468C7.61847 7.50471 7.53418 7.70819 7.53418 7.92036C7.53418 8.13253 7.61847 8.33602 7.76849 8.48605C7.91852 8.63608 8.12201 8.72036 8.33418 8.72036H17.6675C17.8797 8.72036 18.0832 8.63608 18.2332 8.48605C18.3832 8.33602 18.4675 8.13253 18.4675 7.92036C18.4675 7.70819 18.3832 7.50471 18.2332 7.35468C18.0832 7.20465 17.8797 7.12036 17.6675 7.12036H8.33418Z" fill="#294E92"/>
<path d="M14.8275 11.7741C14.8275 11.5619 14.7432 11.3585 14.5932 11.2084C14.4432 11.0584 14.2397 10.9741 14.0275 10.9741H8.33418C8.22912 10.9741 8.12509 10.9948 8.02803 11.035C7.93097 11.0752 7.84278 11.1341 7.76849 11.2084C7.69421 11.2827 7.63528 11.3709 7.59508 11.468C7.55487 11.565 7.53418 11.6691 7.53418 11.7741C7.53418 11.8792 7.55487 11.9832 7.59508 12.0803C7.63528 12.1773 7.69421 12.2655 7.76849 12.3398C7.84278 12.4141 7.93097 12.473 8.02803 12.5132C8.12509 12.5534 8.22912 12.5741 8.33418 12.5741H14.0275C14.2397 12.5741 14.4432 12.4898 14.5932 12.3398C14.7432 12.1898 14.8275 11.9863 14.8275 11.7741Z" fill="#294E92"/>
<path d="M4.12209 20.5596H12.7888C12.8548 20.0155 12.9754 19.4795 13.1488 18.9596H4.92209V4.93293C4.92209 4.75612 4.99233 4.58655 5.11735 4.46152C5.24237 4.3365 5.41194 4.26626 5.58875 4.26626H22.4554C22.6322 4.26626 22.8018 4.3365 22.9268 4.46152C23.0519 4.58655 23.1221 4.75612 23.1221 4.93293V12.5463C23.6648 12.5988 24.2009 12.7061 24.7221 12.8663V4.93293C24.7221 4.33177 24.4833 3.75523 24.0582 3.33015C23.6331 2.90507 23.0566 2.66626 22.4554 2.66626H5.58875C4.9876 2.66626 4.41106 2.90507 3.98598 3.33015C3.5609 3.75523 3.32209 4.33177 3.32209 4.93293V18.9596H2.12209C2.01828 18.9578 1.91518 18.9769 1.81892 19.0158C1.72266 19.0547 1.63522 19.1126 1.56181 19.186C1.4884 19.2594 1.43052 19.3468 1.39162 19.4431C1.35273 19.5394 1.33362 19.6425 1.33542 19.7463V23.9996C1.33184 24.1034 1.3492 24.2068 1.38645 24.3037C1.42371 24.4007 1.48011 24.4891 1.55228 24.5637C1.62445 24.6384 1.71091 24.6978 1.80652 24.7383C1.90213 24.7788 2.00492 24.7997 2.10875 24.7996H13.1354C12.9621 24.2797 12.8415 23.7436 12.7754 23.1996H2.86875V20.5329L4.12209 20.5596Z" fill="#294E92"/>
<path fill-rule="evenodd" clip-rule="evenodd" d="M21.6155 29.23C25.8211 29.23 29.2305 25.8206 29.2305 21.615C29.2305 17.4094 25.8211 14 21.6155 14C17.4098 14 14.0005 17.4094 14.0005 21.615C14.0005 25.8206 17.4098 29.23 21.6155 29.23ZM24.1299 24.989L21.623 22.4822L19.1161 24.989C18.9979 25.1072 18.8547 25.1663 18.6863 25.1663C18.5179 25.1663 18.3747 25.1072 18.2565 24.989C18.1383 24.8709 18.0805 24.7263 18.0831 24.5553C18.0858 24.3843 18.1435 24.2423 18.2565 24.1294L20.7633 21.6225L18.2565 19.1157C18.1383 18.9975 18.0792 18.8542 18.0792 18.6858C18.0792 18.5175 18.1383 18.3742 18.2565 18.256C18.3747 18.1378 18.5192 18.08 18.6902 18.0827C18.8612 18.0853 19.0032 18.1431 19.1161 18.256L21.623 20.7629L24.1299 18.256C24.248 18.1378 24.3913 18.0787 24.5597 18.0787C24.7281 18.0787 24.8713 18.1378 24.9895 18.256C25.1077 18.3742 25.1655 18.5188 25.1628 18.6898C25.1602 18.8607 25.1025 19.0027 24.9895 19.1157L22.4827 21.6225L24.9895 24.1294C25.1077 24.2476 25.1668 24.3908 25.1668 24.5592C25.1668 24.7276 25.1077 24.8709 24.9895 24.989C24.8713 25.1072 24.7268 25.165 24.5558 25.1624C24.3848 25.1598 24.2428 25.102 24.1299 24.989Z" fill="#294E92"/>
</g>
</svg>
