<?xml version="1.0" encoding="utf-8"?>
<!-- Generator: Adobe Illustrator 26.0.3, SVG Export Plug-In . SVG Version: 6.00 Build 0)  -->
<svg version="1.1" id="Layer_1" xmlns="http://www.w3.org/2000/svg" xmlns:xlink="http://www.w3.org/1999/xlink" x="0px" y="0px"
	 viewBox="0 0 24 24" style="enable-background:new 0 0 24 24;" xml:space="preserve">
<style type="text/css">
	.st0{fill:#222228;}
	.st1{fill:#595B5D;}
	.st2{fill:#FFFFFF;}
	.st3{fill:#294E92;}
	.st4{fill:#1D1D1B;}
	.st5{fill-rule:evenodd;clip-rule:evenodd;fill:#585959;}
	.st6{fill:#B2B2B2;}
	.st7{fill:#585959;}
</style>
<g>
	<path class="st3" d="M7.7,8H15c0.2,0,0.3-0.1,0.4-0.2c0.1-0.1,0.2-0.3,0.2-0.4c0-0.2-0.1-0.3-0.2-0.4c-0.1-0.1-0.3-0.2-0.4-0.2H7.7
		C7.5,6.9,7.3,6.9,7.2,7C7.1,7.1,7.1,7.3,7.1,7.4c0,0.2,0.1,0.3,0.2,0.4C7.3,8,7.5,8,7.7,8z"/>
	<path class="st3" d="M7.7,10.5H12c0.2,0,0.3-0.1,0.4-0.2c0.1-0.1,0.2-0.3,0.2-0.4s-0.1-0.3-0.2-0.4c-0.1-0.1-0.3-0.2-0.4-0.2H7.7
		c-0.2,0-0.3,0.1-0.4,0.2C7.1,9.6,7.1,9.7,7.1,9.9s0.1,0.3,0.2,0.4C7.3,10.4,7.5,10.5,7.7,10.5z"/>
	<path class="st3" d="M21.5,16.5c-0.2-0.2-0.5-0.3-0.7-0.3h-0.5l0-10.7c0-0.5-0.2-1.1-0.6-1.4c-0.4-0.4-0.9-0.6-1.4-0.6H5.7
		c-0.5,0-1.1,0.2-1.4,0.6C3.9,4.5,3.7,5,3.7,5.6v10.7H3.2c-0.3,0-0.5,0.1-0.7,0.3c-0.2,0.2-0.3,0.5-0.3,0.7v2.2
		c0,0.3,0.1,0.5,0.3,0.7c0.2,0.2,0.5,0.3,0.7,0.3h17.6c0.1,0,0.3,0,0.4-0.1c0.1-0.1,0.2-0.1,0.3-0.2c0.1-0.1,0.2-0.2,0.2-0.3
		c0.1-0.1,0.1-0.3,0.1-0.4v-2.2C21.8,17,21.7,16.7,21.5,16.5z M4.9,5.6C4.9,5.4,5,5.1,5.1,5c0.2-0.2,0.4-0.2,0.6-0.2h12.6
		c0.2,0,0.4,0.1,0.6,0.2c0.2,0.2,0.2,0.4,0.2,0.6v10.7h-6.5v-1.8c0-0.1,0-0.1-0.1-0.2c-0.1-0.1-0.1-0.1-0.2-0.1h-5
		c-0.1,0-0.1,0-0.2,0.1s-0.1,0.1-0.1,0.2v1.8H4.9L4.9,5.6z M20.6,19.3H3.4v-1.8h0.3v0h16.6v0h0.3V19.3z"/>
</g>
</svg>
