<svg width="32" height="32" viewBox="0 0 32 32" fill="none" xmlns="http://www.w3.org/2000/svg">
<mask id="mask0_713_7825" style="mask-type:alpha" maskUnits="userSpaceOnUse" x="0" y="0" width="32" height="32">
<rect width="32" height="32" fill="#D9D9D9"/>
</mask>
<g mask="url(#mask0_713_7825)">
<path fill-rule="evenodd" clip-rule="evenodd" d="M4.13203 20.5608H12.7987C12.8775 20.019 12.9978 19.4841 13.1587 18.9608H4.93203V4.93415C4.93203 4.75734 5.00227 4.58777 5.12729 4.46274C5.25232 4.33772 5.42189 4.26748 5.5987 4.26748H22.4654C22.6422 4.26748 22.8117 4.33772 22.9368 4.46274C23.0618 4.58777 23.132 4.75734 23.132 4.93415V12.5475C23.6728 12.6131 24.2077 12.7201 24.732 12.8675V4.93415C24.732 4.33299 24.4932 3.75645 24.0681 3.33137C23.6431 2.90629 23.0665 2.66748 22.4654 2.66748H5.5987C4.99754 2.66748 4.42101 2.90629 3.99592 3.33137C3.57084 3.75645 3.33203 4.33299 3.33203 4.93415V18.9608H2.13203C1.91986 18.9608 1.71637 19.0451 1.56635 19.1951C1.41632 19.3452 1.33203 19.5486 1.33203 19.7608V24.0141C1.33203 24.2263 1.41632 24.4298 1.56635 24.5798C1.71637 24.7299 1.91986 24.8141 2.13203 24.8141H13.1454C12.9845 24.2908 12.8641 23.7559 12.7854 23.2141H2.8787V20.5475L4.13203 20.5608ZM7.78117 7.35491C7.93119 7.20488 8.13468 7.1206 8.34685 7.1206H17.6802C17.8924 7.1206 18.0958 7.20488 18.2459 7.35491C18.3959 7.50494 18.4802 7.70842 18.4802 7.9206C18.4802 8.13277 18.3959 8.33625 18.2459 8.48628C18.0958 8.63631 17.8924 8.7206 17.6802 8.7206H8.34685C8.13468 8.7206 7.93119 8.63631 7.78117 8.48628C7.63114 8.33625 7.54685 8.13277 7.54685 7.9206C7.54685 7.70842 7.63114 7.50494 7.78117 7.35491ZM14.0402 10.9744C14.2524 10.9744 14.4558 11.0587 14.6059 11.2087C14.7559 11.3587 14.8402 11.5622 14.8402 11.7744C14.8402 11.9866 14.7559 12.19 14.6059 12.3401C14.4558 12.4901 14.2524 12.5744 14.0402 12.5744H8.34685C8.24179 12.5744 8.13776 12.5537 8.0407 12.5135C7.94364 12.4733 7.85545 12.4144 7.78117 12.3401C7.70688 12.2658 7.64795 12.1776 7.60775 12.0805C7.56754 11.9835 7.54685 11.8794 7.54685 11.7744C7.54685 11.6693 7.56754 11.5653 7.60775 11.4682C7.64795 11.3712 7.70688 11.283 7.78117 11.2087C7.85545 11.1344 7.94364 11.0755 8.0407 11.0353C8.13776 10.9951 8.24179 10.9744 8.34685 10.9744H14.0402ZM17.8097 15.564C19.0618 14.7275 20.5337 14.2809 22.0395 14.2809C24.0587 14.2809 25.9951 15.0831 27.4229 16.5108C28.8507 17.9386 29.6528 19.8751 29.6528 21.8943C29.6528 23.4001 29.2063 24.872 28.3697 26.124C27.5332 27.376 26.3441 28.3518 24.953 28.9281C23.5618 29.5043 22.031 29.6551 20.5542 29.3613C19.0774 29.0676 17.7208 28.3425 16.656 27.2777C15.5913 26.213 14.8662 24.8564 14.5724 23.3796C14.2787 21.9027 14.4294 20.3719 15.0057 18.9808C15.5819 17.5896 16.5577 16.4006 17.8097 15.564ZM24.734 25.177C24.8144 25.1425 24.8866 25.0917 24.9462 25.0276L25.0262 24.9343C25.128 24.7997 25.1726 24.6302 25.1501 24.4629C25.1276 24.2956 25.0399 24.1439 24.9062 24.0409L22.4662 21.6009V17.8943C22.4662 17.7175 22.3959 17.5479 22.2709 17.4229C22.1459 17.2979 21.9763 17.2276 21.7995 17.2276C21.6227 17.2276 21.4531 17.2979 21.3281 17.4229C21.2031 17.5479 21.1328 17.7175 21.1328 17.8943V21.8943C21.1367 22.0698 21.2084 22.237 21.3328 22.3609L23.9995 25.0276C24.0615 25.092 24.1362 25.143 24.2187 25.1774C24.3013 25.2118 24.39 25.2289 24.4795 25.2276C24.5669 25.2287 24.6536 25.2114 24.734 25.177Z" fill="#294E92"/>
</g>
</svg>
