<?xml version="1.0" encoding="utf-8"?>
<!-- Generator: Adobe Illustrator 26.0.3, SVG Export Plug-In . SVG Version: 6.00 Build 0)  -->
<svg version="1.1" id="Layer_1" xmlns="http://www.w3.org/2000/svg" xmlns:xlink="http://www.w3.org/1999/xlink" x="0px" y="0px"
	 viewBox="0 0 24 24" style="enable-background:new 0 0 24 24;" xml:space="preserve">
<style type="text/css">
	.st0{fill:#222228;}
	.st1{fill:#595B5D;}
	.st2{fill:#FFFFFF;}
	.st3{fill:#294E92;}
	.st4{fill:#1D1D1B;}
	.st5{fill-rule:evenodd;clip-rule:evenodd;fill:#585959;}
	.st6{fill:#B2B2B2;}
	.st7{fill:#585959;}
</style>
<path class="st2" d="M17.9,4.2h-1.5V3.2c0-0.4-0.3-0.7-0.7-0.7s-0.7,0.3-0.7,0.7v0.9H8.9V3.2c0-0.4-0.3-0.7-0.7-0.7S7.6,2.9,7.6,3.2
	v0.9H6.1c-1.5,0-2.8,1.2-2.8,2.8v11.8c0,1.5,1.2,2.8,2.8,2.8h11.8c1.5,0,2.8-1.2,2.8-2.8V6.9C20.6,5.4,19.4,4.2,17.9,4.2z M6.1,5.5
	h1.5v1c0,0.4,0.3,0.7,0.7,0.7s0.7-0.3,0.7-0.7v-1h6.1v1c0,0.4,0.3,0.7,0.7,0.7s0.7-0.3,0.7-0.7v-1h1.5c0.8,0,1.5,0.7,1.5,1.5v2.5
	H4.7V6.9C4.7,6.1,5.3,5.5,6.1,5.5z M17.9,20.1H6.1c-0.8,0-1.5-0.7-1.5-1.5v-7.9h14.7v7.9C19.3,19.5,18.7,20.1,17.9,20.1z"/>
</svg>
