<svg width="37" height="27" viewBox="0 0 37 27" fill="none" xmlns="http://www.w3.org/2000/svg">
<path d="M14.018 26.9998C13.3873 26.9994 12.7804 26.7628 12.3193 26.3378L0.758679 15.6786C0.289493 15.2307 0.0173894 14.6187 0.000804616 13.9745C-0.0157801 13.3304 0.224577 12.7054 0.670106 12.2345C1.11564 11.7636 1.73055 11.4843 2.38264 11.4568C3.03473 11.4293 3.6718 11.6557 4.15641 12.0874L13.8794 21.0499L32.6499 0.824038C32.8693 0.58057 33.1355 0.382481 33.4332 0.241557C33.7308 0.100632 34.0539 0.0196872 34.3836 0.00316501C34.7133 -0.0133572 35.0431 0.0349205 35.3537 0.145363C35.6642 0.255806 35.9495 0.426203 36.1928 0.64648C36.4361 0.866757 36.6325 1.13263 36.7708 1.42857C36.9091 1.72451 36.9866 2.04465 36.9984 2.37035C37.0102 2.69606 36.9562 3.02068 36.8397 3.32563C36.7233 3.63057 36.5466 3.90962 36.3199 4.1465L15.8565 26.2032C15.6348 26.4422 15.3672 26.6353 15.0693 26.7715C14.7715 26.9077 14.4492 26.9841 14.1212 26.9965C14.0869 26.9994 14.0525 27.0005 14.018 26.9998Z" fill="white"/>
</svg>
