<svg width="63" height="63" viewBox="0 0 63 63" fill="none" xmlns="http://www.w3.org/2000/svg">
<mask id="mask0_1342_2533" style="mask-type:alpha" maskUnits="userSpaceOnUse" x="0" y="0" width="63" height="63">
<rect width="63" height="63" fill="#D9D9D9"/>
</mask>
<g mask="url(#mask0_1342_2533)">
<path d="M27.018 44.9998C26.3873 44.9994 25.7804 44.7628 25.3193 44.3378L13.7587 33.6786C13.2895 33.2307 13.0174 32.6187 13.0008 31.9745C12.9842 31.3304 13.2246 30.7054 13.6701 30.2345C14.1156 29.7636 14.7306 29.4843 15.3826 29.4568C16.0347 29.4293 16.6718 29.6557 17.1564 30.0874L26.8794 39.0499L45.6499 18.824C45.8693 18.5806 46.1355 18.3825 46.4332 18.2416C46.7308 18.1006 47.0539 18.0197 47.3836 18.0032C47.7133 17.9866 48.0431 18.0349 48.3537 18.1454C48.6642 18.2558 48.9495 18.4262 49.1928 18.6465C49.4361 18.8668 49.6325 19.1326 49.7708 19.4286C49.9091 19.7245 49.9866 20.0446 49.9984 20.3704C50.0102 20.6961 49.9562 21.0207 49.8397 21.3256C49.7233 21.6306 49.5466 21.9096 49.3199 22.1465L28.8565 44.2032C28.6348 44.4422 28.3672 44.6353 28.0693 44.7715C27.7715 44.9077 27.4492 44.9841 27.1212 44.9965C27.0869 44.9994 27.0525 45.0005 27.018 44.9998Z" fill="white"/>
</g>
</svg>
