<svg width="28" height="28" viewBox="0 0 28 28" fill="none" xmlns="http://www.w3.org/2000/svg">
<mask id="mask0_1542_2798" style="mask-type:alpha" maskUnits="userSpaceOnUse" x="0" y="0" width="28" height="28">
<rect width="27.7027" height="28" fill="#D9D9D9"/>
</mask>
<g mask="url(#mask0_1542_2798)">
<path d="M13.868 4.66603C12.0417 4.6628 10.2554 5.20703 8.73506 6.2299C7.21472 7.25277 6.02863 8.70834 5.32676 10.4125C4.62489 12.1167 4.43877 13.993 4.79194 15.8042C5.14511 17.6153 6.0217 19.2799 7.31086 20.5874C8.60003 21.895 10.2439 22.7868 12.0345 23.1501C13.8251 23.5134 15.6821 23.3319 17.3707 22.6285C19.0592 21.925 20.5035 20.7313 21.5208 19.1983C22.5382 17.6652 23.0829 15.8617 23.0861 14.0157C23.0882 12.79 22.8514 11.5759 22.3893 10.4428C21.9272 9.30956 21.2488 8.27945 20.3929 7.41125C19.5369 6.54306 18.5201 5.85377 17.4006 5.38274C16.281 4.91171 15.0807 4.66817 13.868 4.66603ZM17.7978 12.4302L13.0271 17.3339C12.9518 17.4128 12.8613 17.4753 12.7612 17.5175C12.661 17.5597 12.5534 17.5806 12.4449 17.579C12.3388 17.5804 12.2337 17.5592 12.1362 17.517C12.0387 17.4748 11.9511 17.4124 11.8789 17.3339L9.33986 14.7676C9.26407 14.6916 9.20392 14.6012 9.16287 14.5016C9.12181 14.402 9.10068 14.2952 9.10068 14.1873C9.10068 14.0794 9.12181 13.9726 9.16287 13.873C9.20392 13.7734 9.26407 13.683 9.33986 13.6071C9.49101 13.4573 9.69423 13.3734 9.90588 13.3734C10.1175 13.3734 10.3208 13.4573 10.4719 13.6071L12.4449 15.6012L16.6496 11.3514C16.7248 11.2748 16.8142 11.214 16.9127 11.1725C17.0113 11.131 17.117 11.1096 17.2237 11.1096C17.3305 11.1096 17.4361 11.131 17.5347 11.1725C17.6332 11.214 17.7227 11.2748 17.7978 11.3514C17.9243 11.502 17.9938 11.6932 17.9938 11.8908C17.9938 12.0884 17.9243 12.2795 17.7978 12.4302Z" fill="#294E92"/>
</g>
</svg>
