<svg width="24" height="24" viewBox="0 0 24 24" fill="none" xmlns="http://www.w3.org/2000/svg">
<mask id="mask0_697_6934" style="mask-type:alpha" maskUnits="userSpaceOnUse" x="0" y="0" width="24" height="24">
<rect width="24" height="24" fill="#D9D9D9"/>
</mask>
<g mask="url(#mask0_697_6934)">
<path d="M8.99997 17.75H15C15.2125 17.75 15.3906 17.6781 15.5344 17.5343C15.6781 17.3904 15.75 17.2122 15.75 16.9997C15.75 16.7871 15.6781 16.609 15.5344 16.4654C15.3906 16.3218 15.2125 16.25 15 16.25H8.99997C8.78747 16.25 8.60936 16.3219 8.46563 16.4657C8.32188 16.6095 8.25 16.7877 8.25 17.0003C8.25 17.2129 8.32188 17.391 8.46563 17.5346C8.60936 17.6782 8.78747 17.75 8.99997 17.75ZM8.99997 13.75H15C15.2125 13.75 15.3906 13.6781 15.5344 13.5343C15.6781 13.3904 15.75 13.2122 15.75 12.9997C15.75 12.7871 15.6781 12.609 15.5344 12.4654C15.3906 12.3218 15.2125 12.25 15 12.25H8.99997C8.78747 12.25 8.60936 12.3219 8.46563 12.4657C8.32188 12.6095 8.25 12.7877 8.25 13.0003C8.25 13.2129 8.32188 13.391 8.46563 13.5346C8.60936 13.6782 8.78747 13.75 8.99997 13.75ZM6.3077 21.5C5.80257 21.5 5.375 21.325 5.025 20.975C4.675 20.625 4.5 20.1974 4.5 19.6922V4.3077C4.5 3.80257 4.675 3.375 5.025 3.025C5.375 2.675 5.80257 2.5 6.3077 2.5H13.5019C13.7458 2.5 13.9782 2.5468 14.1993 2.6404C14.4202 2.73398 14.6128 2.86282 14.7769 3.02692L18.973 7.22303C19.1371 7.38714 19.266 7.5797 19.3595 7.8007C19.4531 8.02172 19.5 8.25416 19.5 8.49803V19.6922C19.5 20.1974 19.325 20.625 18.975 20.975C18.625 21.325 18.1974 21.5 17.6922 21.5H6.3077ZM13.5 7.59995V3.99997H6.3077C6.23077 3.99997 6.16024 4.03203 6.09612 4.09613C6.03202 4.16024 5.99997 4.23077 5.99997 4.3077V19.6922C5.99997 19.7692 6.03202 19.8397 6.09612 19.9038C6.16024 19.9679 6.23077 20 6.3077 20H17.6922C17.7692 20 17.8397 19.9679 17.9038 19.9038C17.9679 19.8397 18 19.7692 18 19.6922V8.49995H14.3998C14.1448 8.49995 13.9311 8.4137 13.7587 8.2412C13.5862 8.0687 13.5 7.85495 13.5 7.59995Z" fill="#1C1B1F"/>
</g>
</svg>
