<svg width="25" height="24" viewBox="0 0 25 24" fill="none" xmlns="http://www.w3.org/2000/svg">
<mask id="mask0_618_3321" style="mask-type:alpha" maskUnits="userSpaceOnUse" x="0" y="0" width="25" height="24">
<rect x="0.5" width="24" height="24" fill="#D9D9D9"/>
</mask>
<g mask="url(#mask0_618_3321)">
<path d="M6.49818 17.1269C6.35331 16.982 6.28088 16.8064 6.28088 16.6C6.28088 16.3936 6.35331 16.218 6.49818 16.0731L10.5559 12L6.49818 7.92689C6.35971 7.78844 6.28631 7.61697 6.27798 7.41249C6.26965 7.208 6.34305 7.0282 6.49818 6.87309C6.64305 6.7282 6.81868 6.65576 7.02508 6.65576C7.2315 6.65576 7.40714 6.7282 7.55201 6.87309L12.0462 11.3673C12.1398 11.4609 12.2058 11.5596 12.2443 11.6635C12.2828 11.7673 12.302 11.8795 12.302 12C12.302 12.1205 12.2828 12.2327 12.2443 12.3365C12.2058 12.4404 12.1398 12.5391 12.0462 12.6327L7.55201 17.1269C7.41354 17.2654 7.24206 17.3388 7.03758 17.3471C6.8331 17.3554 6.6533 17.282 6.49818 17.1269ZM12.8482 17.1269C12.7033 16.982 12.6309 16.8064 12.6309 16.6C12.6309 16.3936 12.7033 16.218 12.8482 16.0731L16.9059 12L12.8482 7.92689C12.7097 7.78844 12.6363 7.61697 12.628 7.41249C12.6196 7.208 12.693 7.0282 12.8482 6.87309C12.993 6.7282 13.1687 6.65576 13.3751 6.65576C13.5815 6.65576 13.7571 6.7282 13.902 6.87309L18.3962 11.3673C18.4898 11.4609 18.5558 11.5596 18.5943 11.6635C18.6327 11.7673 18.652 11.8795 18.652 12C18.652 12.1205 18.6327 12.2327 18.5943 12.3365C18.5558 12.4404 18.4898 12.5391 18.3962 12.6327L13.902 17.1269C13.7635 17.2654 13.5921 17.3388 13.3876 17.3471C13.1831 17.3554 13.0033 17.282 12.8482 17.1269Z" fill="#1C1B1F"/>
</g>
</svg>
