<svg width="25" height="24" viewBox="0 0 25 24" fill="none" xmlns="http://www.w3.org/2000/svg">
<mask id="mask0_618_3326" style="mask-type:alpha" maskUnits="userSpaceOnUse" x="0" y="0" width="25" height="24">
<rect x="0.5" width="24" height="24" fill="#D9D9D9"/>
</mask>
<g mask="url(#mask0_618_3326)">
<path d="M17.4481 17.127L12.9539 12.6328C12.8603 12.5392 12.7943 12.4405 12.7558 12.3366C12.7174 12.2328 12.6981 12.1206 12.6981 12.0001C12.6981 11.8796 12.7174 11.7674 12.7558 11.6636C12.7943 11.5597 12.8603 11.461 12.9539 11.3674L17.4481 6.87318C17.5866 6.73471 17.7581 6.66131 17.9625 6.65298C18.167 6.64465 18.3468 6.71805 18.5019 6.87318C18.6468 7.01805 18.7192 7.19368 18.7192 7.40008C18.7192 7.60648 18.6468 7.78211 18.5019 7.92698L14.4442 12.0001L18.5019 16.0732C18.6404 16.2116 18.7138 16.3831 18.7221 16.5876C18.7305 16.7921 18.6571 16.9719 18.5019 17.127C18.3571 17.2719 18.1814 17.3443 17.975 17.3443C17.7686 17.3443 17.593 17.2719 17.4481 17.127ZM11.0981 17.127L6.60392 12.6328C6.51034 12.5392 6.44431 12.4405 6.40584 12.3366C6.36738 12.2328 6.34814 12.1206 6.34814 12.0001C6.34814 11.8796 6.36738 11.7674 6.40584 11.6636C6.44431 11.5597 6.51034 11.461 6.60392 11.3674L11.0981 6.87318C11.2366 6.73471 11.4081 6.66131 11.6125 6.65298C11.817 6.64465 11.9968 6.71805 12.152 6.87318C12.2968 7.01805 12.3693 7.19368 12.3693 7.40008C12.3693 7.60648 12.2968 7.78211 12.152 7.92698L8.09427 12.0001L12.152 16.0732C12.2904 16.2116 12.3638 16.3831 12.3721 16.5876C12.3805 16.7921 12.3071 16.9719 12.152 17.127C12.0071 17.2719 11.8315 17.3443 11.625 17.3443C11.4186 17.3443 11.243 17.2719 11.0981 17.127Z" fill="#1C1B1F"/>
</g>
</svg>
