<svg width="24" height="24" viewBox="0 0 24 24" fill="none" xmlns="http://www.w3.org/2000/svg">
<mask id="mask0_618_3269" style="mask-type:alpha" maskUnits="userSpaceOnUse" x="0" y="0" width="24" height="24">
<rect width="24" height="24" fill="#D9D9D9"/>
</mask>
<g mask="url(#mask0_618_3269)">
<path d="M4.3077 19.5001C3.80257 19.5001 3.375 19.3251 3.025 18.9751C2.675 18.6251 2.5 18.1975 2.5 17.6924V6.69244C2.5 6.18732 2.675 5.75977 3.025 5.40977C3.375 5.05977 3.80257 4.88477 4.3077 4.88477H10.3846L12 6.50012H19.6923C20.1974 6.50012 20.625 6.67512 20.975 7.02512C21.325 7.37512 21.5 7.80268 21.5 8.30782V17.6924C21.5 18.1975 21.325 18.6251 20.975 18.9751C20.625 19.3251 20.1974 19.5001 19.6923 19.5001H4.3077ZM3.99998 6.69244V17.6924C3.99998 17.7821 4.02883 17.8558 4.08653 17.9135C4.14423 17.9712 4.21795 18.0001 4.3077 18.0001H19.6923C19.782 18.0001 19.8557 17.9712 19.9134 17.9135C19.9711 17.8558 20 17.7821 20 17.6924V8.30782C20 8.21807 19.9711 8.14434 19.9134 8.08664C19.8557 8.02894 19.782 8.00009 19.6923 8.00009H11.3865L9.77118 6.38474H4.3077C4.21795 6.38474 4.14423 6.41359 4.08653 6.47129C4.02883 6.52897 3.99998 6.60269 3.99998 6.69244ZM3.99998 6.69244V6.38474V18.0001V6.69244Z" fill="#1C1B1F"/>
</g>
</svg>
