<svg width="24" height="24" viewBox="0 0 24 24" fill="none" xmlns="http://www.w3.org/2000/svg">
<mask id="mask0_736_1963" style="mask-type:alpha" maskUnits="userSpaceOnUse" x="0" y="0" width="24" height="24">
<rect width="24" height="24" fill="#D9D9D9"/>
</mask>
<g mask="url(#mask0_736_1963)">
<path d="M4.25 19.5001C3.7641 19.5001 3.35096 19.3299 3.01058 18.9895C2.67019 18.6491 2.5 18.236 2.5 17.7501V6.69244C2.5 6.20656 2.67981 5.78381 3.03943 5.42419C3.39904 5.06457 3.8218 4.88477 4.3077 4.88477H10.3846L12 6.50012H19.6923C20.1397 6.50012 20.5256 6.64467 20.8499 6.93377C21.1743 7.22287 21.3621 7.57831 21.4134 8.00009H11.3865L9.77117 6.38474H4.3077C4.21795 6.38474 4.14423 6.41359 4.08653 6.47129C4.02883 6.52897 3.99998 6.60269 3.99998 6.69244V17.6924C3.99998 17.7629 4.01761 17.8206 4.05287 17.8655C4.08812 17.9103 4.1346 17.9488 4.1923 17.9809L6.58268 10.0001H23.2404L20.7615 18.2578C20.6474 18.6334 20.4336 18.9344 20.1202 19.1606C19.8067 19.3869 19.459 19.5001 19.0769 19.5001H4.25ZM5.7634 18.0001H19.2692L21.2135 11.5001H7.70765L5.7634 18.0001Z" fill="#1C1B1F"/>
</g>
</svg>
