<svg width="30" height="30" viewBox="0 0 30 30" fill="none" xmlns="http://www.w3.org/2000/svg">
<mask id="mask0_914_3372" style="mask-type:alpha" maskUnits="userSpaceOnUse" x="0" y="0" width="30" height="30">
<rect width="30" height="30" fill="#D9D9D9"/>
</mask>
<g mask="url(#mask0_914_3372)">
<path d="M15.0004 20.9374C15.2661 20.9374 15.4887 20.8476 15.6682 20.6679C15.8477 20.4883 15.9374 20.2656 15.9374 20V14.6874C15.9374 14.4218 15.8476 14.1992 15.6678 14.0195C15.488 13.8398 15.2653 13.75 14.9996 13.75C14.7338 13.75 14.5112 13.8398 14.3317 14.0195C14.1522 14.1992 14.0625 14.4218 14.0625 14.6874V20C14.0625 20.2656 14.1524 20.4883 14.3321 20.6679C14.5119 20.8476 14.7346 20.9374 15.0004 20.9374ZM15 11.6106C15.286 11.6106 15.5258 11.5138 15.7193 11.3203C15.9128 11.1268 16.0096 10.887 16.0096 10.601C16.0096 10.3149 15.9128 10.0751 15.7193 9.88163C15.5258 9.68813 15.286 9.59137 15 9.59137C14.7139 9.59137 14.4741 9.68813 14.2806 9.88163C14.0871 10.0751 13.9904 10.3149 13.9904 10.601C13.9904 10.887 14.0871 11.1268 14.2806 11.3203C14.4741 11.5138 14.7139 11.6106 15 11.6106ZM15.0021 26.8749C13.3596 26.8749 11.8159 26.5633 10.3707 25.9399C8.9255 25.3166 7.6684 24.4707 6.59938 23.4021C5.53033 22.3336 4.68401 21.077 4.06041 19.6325C3.4368 18.188 3.125 16.6445 3.125 15.0021C3.125 13.3596 3.43667 11.8159 4.06 10.3707C4.68333 8.9255 5.52927 7.6684 6.59781 6.59938C7.66638 5.53033 8.92293 4.68401 10.3675 4.06041C11.812 3.4368 13.3555 3.125 14.9979 3.125C16.6403 3.125 18.1841 3.43667 19.6293 4.06C21.0744 4.68333 22.3315 5.52927 23.4006 6.59781C24.4696 7.66638 25.3159 8.92293 25.9395 10.3675C26.5631 11.812 26.8749 13.3555 26.8749 14.9979C26.8749 16.6403 26.5633 18.1841 25.9399 19.6293C25.3166 21.0744 24.4707 22.3315 23.4021 23.4006C22.3336 24.4696 21.077 25.3159 19.6325 25.9395C18.188 26.5631 16.6445 26.8749 15.0021 26.8749ZM15 25C17.7916 25 20.1562 24.0312 22.0937 22.0937C24.0312 20.1562 25 17.7916 25 15C25 12.2083 24.0312 9.84372 22.0937 7.90622C20.1562 5.96872 17.7916 4.99997 15 4.99997C12.2083 4.99997 9.84372 5.96872 7.90622 7.90622C5.96872 9.84372 4.99997 12.2083 4.99997 15C4.99997 17.7916 5.96872 20.1562 7.90622 22.0937C9.84372 24.0312 12.2083 25 15 25Z" fill="#324D8D"/>
</g>
</svg>
