<svg width="28" height="28" viewBox="0 0 28 28" fill="none" xmlns="http://www.w3.org/2000/svg">
<mask id="mask0_1542_2778" style="mask-type:alpha" maskUnits="userSpaceOnUse" x="0" y="0" width="28" height="28">
<rect x="0.000244141" width="27.7027" height="28" fill="#D9D9D9"/>
</mask>
<g mask="url(#mask0_1542_2778)">
<path d="M13.8683 4.66701C12.0419 4.66378 10.2556 5.20801 8.7353 6.23088C7.21497 7.25375 6.02887 8.70932 5.32701 10.4135C4.62514 12.1177 4.43902 13.994 4.79219 15.8051C5.14535 17.6163 6.02194 19.2808 7.31111 20.5884C8.60027 21.896 10.2441 22.7878 12.0347 23.1511C13.8254 23.5144 15.6824 23.3329 17.3709 22.6294C19.0595 21.926 20.5038 20.7323 21.5211 19.1992C22.5384 17.6662 23.0831 15.8626 23.0863 14.0167C23.0884 12.791 22.8517 11.5769 22.3896 10.4437C21.9275 9.31053 21.2491 8.28043 20.3931 7.41223C19.5371 6.54403 18.5204 5.85474 17.4008 5.38372C16.2813 4.91269 15.0809 4.66915 13.8683 4.66701ZM17.3938 14.4744L12.057 17.4983C11.9977 17.5332 11.9321 17.5558 11.864 17.5648C11.796 17.5738 11.7268 17.5691 11.6606 17.5508C11.5944 17.5326 11.5324 17.5012 11.4783 17.4585C11.4242 17.4158 11.379 17.3626 11.3454 17.3021C11.3289 17.2213 11.3289 17.1378 11.3454 17.057V10.9601C11.3446 10.8678 11.3679 10.7771 11.413 10.6969C11.4581 10.6167 11.5234 10.55 11.6022 10.5035C11.681 10.4571 11.7705 10.4325 11.8618 10.4323C11.953 10.4321 12.0427 10.4563 12.1217 10.5024L17.4585 13.6244C17.5116 13.6673 17.5558 13.7204 17.5886 13.7806C17.6214 13.8408 17.6422 13.9069 17.6497 13.9752C17.6572 14.0435 17.6513 14.1127 17.6324 14.1787C17.6134 14.2447 17.5818 14.3063 17.5393 14.3599C17.5211 14.3948 17.4929 14.4233 17.4585 14.4417L17.3938 14.4744Z" fill="#85BF69"/>
</g>
</svg>
