<svg width="18" height="19" viewBox="0 0 18 19" fill="none" xmlns="http://www.w3.org/2000/svg">
<path fill-rule="evenodd" clip-rule="evenodd" d="M16.8443 17.945C16.4743 18.315 16.0223 18.5 15.4884 18.5H9.18617C8.96119 18.5 8.7728 18.4241 8.621 18.2723C8.46921 18.1205 8.39331 17.9321 8.39331 17.7071C8.39331 17.4822 8.46921 17.2938 8.621 17.142C8.7728 16.9902 8.96119 16.9143 9.18617 16.9143H15.4884C15.5697 16.9143 15.6442 16.8804 15.712 16.8126C15.7798 16.7449 15.8137 16.6703 15.8137 16.589V1.911C15.8137 1.82967 15.7798 1.75511 15.712 1.68733C15.6442 1.61957 15.5697 1.58569 15.4884 1.58569H9.18617C8.96119 1.58569 8.7728 1.50979 8.621 1.35801C8.46921 1.20622 8.39331 1.01784 8.39331 0.792857C8.39331 0.56788 8.46921 0.379497 8.621 0.227709C8.7728 0.0759028 8.96119 0 9.18617 0H15.4884C16.0223 0 16.4743 0.185 16.8443 0.555C17.2143 0.925 17.3993 1.377 17.3993 1.911V16.589C17.3993 17.123 17.2143 17.575 16.8443 17.945ZM6.67915 5.90151C6.67915 5.68875 6.75572 5.49495 6.90887 5.32011C7.06201 5.16697 7.23955 5.08226 7.44148 5.066C7.64343 5.04974 7.82843 5.12563 7.99648 5.29368L11.2939 8.59113C11.3929 8.69006 11.4627 8.79442 11.5033 8.9042C11.544 9.01398 11.5643 9.13257 11.5643 9.25995C11.5643 9.38736 11.544 9.50595 11.5033 9.61574C11.4627 9.7255 11.3929 9.82986 11.2939 9.92881L8.00663 13.2161C7.85348 13.3692 7.67053 13.4458 7.45776 13.4458C7.24498 13.4458 7.06201 13.3638 6.90887 13.1998C6.74487 13.0358 6.66287 12.8474 6.66287 12.6346C6.66287 12.4219 6.74148 12.2369 6.89869 12.0797L8.92558 10.0528L0.822127 10.0528C0.59715 10.0528 0.408767 9.97691 0.256979 9.8251C0.105191 9.67331 0.0292969 9.48493 0.0292969 9.25995C0.0292969 9.03498 0.105191 8.84659 0.256979 8.6948C0.408767 8.54301 0.59715 8.46712 0.822128 8.46712L8.92558 8.46712L6.90887 6.45041C6.75572 6.29727 6.67915 6.1143 6.67915 5.90151Z" fill="white"/>
</svg>
