<?xml version="1.0" encoding="utf-8"?>
<!-- Generator: Adobe Illustrator 26.0.3, SVG Export Plug-In . SVG Version: 6.00 Build 0)  -->
<svg version="1.1" id="Layer_1" xmlns="http://www.w3.org/2000/svg" xmlns:xlink="http://www.w3.org/1999/xlink" x="0px" y="0px"
	 viewBox="0 0 24 24" style="enable-background:new 0 0 24 24;" xml:space="preserve">
<style type="text/css">
	.st0{fill:#222228;}
	.st1{fill:#595B5D;}
	.st2{fill:#FFFFFF;}
	.st3{fill:#294E92;}
	.st4{fill:#1D1D1B;}
	.st5{fill-rule:evenodd;clip-rule:evenodd;fill:#585959;}
	.st6{fill:#B2B2B2;}
	.st7{fill:#585959;}
</style>
<g>
	<path class="st2" d="M15.6,16c-0.4,0-0.7,0.3-0.7,0.7v3.2c0,0.2-0.2,0.4-0.4,0.4H3.8c-0.2,0-0.4-0.2-0.4-0.4V4.1
		c0-0.2,0.2-0.4,0.4-0.4h10.7c0.2,0,0.4,0.2,0.4,0.4v3.2c0,0.4,0.3,0.7,0.7,0.7s0.7-0.3,0.7-0.7V4.1c0-0.9-0.8-1.7-1.7-1.7H3.8
		c-0.9,0-1.7,0.8-1.7,1.7v15.9c0,0.9,0.8,1.7,1.7,1.7h10.7c0.9,0,1.7-0.8,1.7-1.7v-3.2C16.2,16.3,15.9,16,15.6,16z"/>
	<path class="st2" d="M21.7,11.6l-2.6-2.8c-0.2-0.3-0.7-0.3-0.9,0c-0.3,0.2-0.3,0.7,0,0.9l1.6,1.7h-9.4c-0.4,0-0.6,0.3-0.6,0.7
		s0.3,0.7,0.6,0.7h9.3l-1.5,1.6c-0.3,0.3-0.2,0.7,0,0.9c0.1,0.1,0.3,0.2,0.5,0.2c0.2,0,0.3-0.1,0.5-0.2l2.6-2.7
		C22,12.3,22,11.9,21.7,11.6z"/>
</g>
</svg>
