<?xml version="1.0" encoding="utf-8"?>
<!-- Generator: Adobe Illustrator 26.0.3, SVG Export Plug-In . SVG Version: 6.00 Build 0)  -->
<svg version="1.1" id="Layer_1" xmlns="http://www.w3.org/2000/svg" xmlns:xlink="http://www.w3.org/1999/xlink" x="0px" y="0px"
	 viewBox="0 0 24 24" style="enable-background:new 0 0 24 24;" xml:space="preserve">
<style type="text/css">
	.st0{fill:#222228;}
	.st1{fill:#595B5D;}
	.st2{fill:#FFFFFF;} 
	.st3{fill:#294E92;}
	.st4{fill:#1D1D1B;}
	.st5{fill-rule:evenodd;clip-rule:evenodd;fill:#585959;}
	.st6{fill:#B2B2B2;}
	.st7{fill:#585959;}
</style>
<g>
	<path class="st0" d="M21.6,12c0-5.3-4.3-9.6-9.6-9.6S2.4,6.7,2.4,12c0,2.7,1.1,5.1,2.9,6.8c0.1,0.2,0.2,0.3,0.4,0.4
		c1.7,1.5,3.9,2.4,6.3,2.4c2.4,0,4.6-0.9,6.3-2.4c0.2-0.1,0.3-0.2,0.4-0.4C20.5,17.1,21.6,14.7,21.6,12z M3.7,12
		c0-4.6,3.7-8.3,8.3-8.3s8.3,3.7,8.3,8.3c0,1.9-0.6,3.6-1.7,5c-0.4-1.9-2.1-3.3-4.2-3.3H9.5c-2,0-3.7,1.4-4.2,3.3
		C4.3,15.6,3.7,13.9,3.7,12z M6.5,18.2V18c0-1.7,1.4-3,3-3h4.9c1.7,0,3,1.4,3,3v0.2c-1.5,1.3-3.4,2.1-5.5,2.1
		C9.9,20.3,8,19.5,6.5,18.2z"/>
	<path class="st0" d="M12,13.1c1.9,0,3.5-1.5,3.5-3.4S13.9,6.2,12,6.2S8.5,7.7,8.5,9.6S10.1,13.1,12,13.1z M12,7.4
		c1.2,0,2.2,1,2.2,2.2c0,1.2-1,2.2-2.2,2.2c-1.2,0-2.2-1-2.2-2.2C9.8,8.4,10.8,7.4,12,7.4z"/>
</g>
</svg>
