<svg width="28" height="28" viewBox="0 0 28 28" fill="none" xmlns="http://www.w3.org/2000/svg">
<mask id="mask0_1542_2793" style="mask-type:alpha" maskUnits="userSpaceOnUse" x="0" y="0" width="28" height="28">
<rect width="28" height="28" fill="#D9D9D9"/>
</mask>
<g mask="url(#mask0_1542_2793)">
<path fill-rule="evenodd" clip-rule="evenodd" d="M14.665 23.67C19.8206 23.67 24 19.4906 24 14.335C24 9.17942 19.8206 5 14.665 5C9.50942 5 5.33 9.17942 5.33 14.335C5.33 19.4906 9.50942 23.67 14.665 23.67ZM17.7473 18.4711L14.6742 15.3981L11.6011 18.4711C11.4563 18.616 11.2806 18.6884 11.0742 18.6884C10.8678 18.6884 10.6922 18.616 10.5473 18.4711C10.4024 18.3263 10.3316 18.149 10.3348 17.9394C10.338 17.7298 10.4089 17.5558 10.5473 17.4173L13.6204 14.3442L10.5473 11.2711C10.4024 11.1263 10.33 10.9506 10.33 10.7442C10.33 10.5378 10.4024 10.3622 10.5473 10.2173C10.6922 10.0724 10.8694 10.0016 11.079 10.0048C11.2886 10.008 11.4627 10.0789 11.6011 10.2173L14.6742 13.2904L17.7473 10.2173C17.8922 10.0724 18.0678 10 18.2742 10C18.4806 10 18.6563 10.0724 18.8011 10.2173C18.946 10.3622 19.0168 10.5394 19.0136 10.749C19.0104 10.9586 18.9396 11.1327 18.8011 11.2711L15.7281 14.3442L18.8011 17.4173C18.946 17.5622 19.0185 17.7378 19.0185 17.9442C19.0185 18.1506 18.946 18.3263 18.8011 18.4711C18.6563 18.616 18.479 18.6868 18.2694 18.6836C18.0598 18.6804 17.8858 18.6096 17.7473 18.4711Z" fill="#CC4F49"/>
</g>
</svg>
