<svg width="28" height="28" viewBox="0 0 28 28" fill="none" xmlns="http://www.w3.org/2000/svg">
<mask id="mask0_1542_3126" style="mask-type:alpha" maskUnits="userSpaceOnUse" x="0" y="0" width="28" height="28">
<rect width="28" height="28" fill="#D9D9D9"/>
</mask>
<g mask="url(#mask0_1542_3126)">
<path fill-rule="evenodd" clip-rule="evenodd" d="M23.67 14.335C23.67 19.4906 19.4906 23.67 14.335 23.67C9.17942 23.67 5 19.4906 5 14.335C5 9.17942 9.17942 5 14.335 5C19.4906 5 23.67 9.17942 23.67 14.335ZM18.3217 10.7642L13.4998 15.6678C13.4237 15.7468 13.3322 15.8093 13.231 15.8515C13.1298 15.8937 13.021 15.9146 12.9114 15.913C12.8042 15.9143 12.6979 15.8932 12.5994 15.851C12.5008 15.8087 12.4122 15.7464 12.3393 15.6678L9.773 13.1016C9.6964 13.0256 9.6356 12.9352 9.59411 12.8356C9.55261 12.736 9.53125 12.6292 9.53125 12.5213C9.53125 12.4134 9.55261 12.3066 9.59411 12.207C9.6356 12.1074 9.6964 12.017 9.773 11.941C9.92577 11.7913 10.1312 11.7074 10.3451 11.7074C10.559 11.7074 10.7644 11.7913 10.9172 11.941L12.9114 13.9352L17.1612 9.68535C17.2372 9.60875 17.3276 9.54795 17.4272 9.50646C17.5268 9.46497 17.6336 9.4436 17.7415 9.4436C17.8494 9.4436 17.9562 9.46497 18.0558 9.50646C18.1554 9.54795 18.2458 9.60875 18.3217 9.68535C18.4496 9.836 18.5198 10.0272 18.5198 10.2248C18.5198 10.4223 18.4496 10.6135 18.3217 10.7642ZM10 17.25C9.58579 17.25 9.25 17.5858 9.25 18C9.25 18.4142 9.58579 18.75 10 18.75H18C18.4142 18.75 18.75 18.4142 18.75 18C18.75 17.5858 18.4142 17.25 18 17.25H10Z" fill="#FFC16E"/>
</g>
</svg>
