<svg width="25" height="24" viewBox="0 0 25 24" fill="none" xmlns="http://www.w3.org/2000/svg">
<mask id="mask0_618_3304" style="mask-type:alpha" maskUnits="userSpaceOnUse" x="0" y="0" width="25" height="24">
<rect x="0.5" width="24" height="24" fill="#D9D9D9"/>
</mask>
<g mask="url(#mask0_618_3304)">
<path d="M13 12C12.0346 12 11.2099 11.658 10.526 10.974C9.84198 10.29 9.5 9.46534 9.5 8.49997C9.5 7.53461 9.84198 6.70993 10.526 6.02595C11.2099 5.34198 12.0346 5 13 5C13.9653 5 14.79 5.34198 15.474 6.02595C16.1579 6.70993 16.4999 7.53461 16.4999 8.49997C16.4999 9.46534 16.1579 10.29 15.474 10.974C14.79 11.658 13.9653 12 13 12ZM5.5 19.6153V17.3922C5.5 16.8871 5.62884 16.4298 5.88653 16.0201C6.14423 15.6105 6.50384 15.2936 6.96538 15.0692C7.79614 14.6551 8.72563 14.3093 9.75383 14.0317C10.782 13.7541 11.8641 13.6154 13 13.6154C14.1359 13.6154 15.2179 13.7541 16.2461 14.0317C17.2743 14.3093 18.2038 14.6551 19.0346 15.0692C19.4961 15.2936 19.8557 15.6105 20.1134 16.0201C20.3711 16.4298 20.4999 16.8871 20.4999 17.3922V19.6153H5.5Z" fill="#1C1B1F"/>
</g>
</svg>
