<svg width="28" height="28" viewBox="0 0 28 28" fill="none" xmlns="http://www.w3.org/2000/svg">
<mask id="mask0_1542_2773" style="mask-type:alpha" maskUnits="userSpaceOnUse" x="0" y="0" width="28" height="28">
<rect x="0.000244141" width="27.7027" height="28" fill="#D9D9D9"/>
</mask>
<g mask="url(#mask0_1542_2773)">
<path d="M13.8506 4.66602C12.0243 4.66602 10.2389 5.21341 8.72039 6.23897C7.20183 7.26453 6.01826 8.72219 5.31934 10.4276C4.62043 12.1331 4.43756 14.0097 4.79386 15.8202C5.15017 17.6307 6.02964 19.2937 7.32107 20.599C8.6125 21.9043 10.2579 22.7932 12.0491 23.1533C13.8404 23.5135 15.6971 23.3286 17.3844 22.6222C19.0718 21.9158 20.5139 20.7195 21.5286 19.1847C22.5433 17.6498 23.0849 15.8453 23.0849 13.9993C23.0849 11.524 22.112 9.15002 20.3802 7.39969C18.6485 5.64935 16.2997 4.66602 13.8506 4.66602ZM17.3761 17.8406C17.3039 17.9191 17.2163 17.9815 17.1188 18.0237C17.0213 18.0659 16.9162 18.0871 16.8101 18.0857C16.7016 18.0873 16.594 18.0664 16.4939 18.0242C16.3937 17.982 16.3032 17.9195 16.2279 17.8406L12.9935 14.5714C12.8426 14.4196 12.7557 14.2146 12.7509 13.9993V9.09567C12.7509 8.87891 12.8361 8.67104 12.9878 8.51777C13.1394 8.3645 13.3451 8.27839 13.5595 8.27839C13.774 8.27839 13.9797 8.3645 14.1313 8.51777C14.283 8.67104 14.3681 8.87891 14.3681 9.09567V13.6397L17.3276 16.631C17.4899 16.7572 17.5962 16.9432 17.6235 17.1483C17.6508 17.3534 17.5967 17.5611 17.4732 17.7261L17.3761 17.8406Z" fill="#9D9D9D"/>
</g>
</svg>
